<?xml version="1.0" encoding="UTF-8"?>
<svg width="628px" height="568px" viewBox="0 0 628 568" version="1.1" xmlns="http://www.w3.org/2000/svg" xmlns:xlink="http://www.w3.org/1999/xlink">
    <title>line illustration 01</title>
    <defs>
        <rect id="path-1" x="0" y="0" width="100" height="100"></rect>
        <rect id="path-3" x="0" y="0" width="40" height="40"></rect>
        <rect id="path-5" x="0" y="0" width="72" height="72"></rect>
        <rect id="path-7" x="0" y="0" width="72" height="72"></rect>
        <rect id="path-9" x="0" y="0" width="72" height="72"></rect>
        <rect id="path-11" x="0" y="0" width="72" height="72"></rect>
        <rect id="path-13" x="0" y="0" width="72" height="72"></rect>
        <rect id="path-15" x="0" y="0" width="72" height="72"></rect>
        <rect id="path-17" x="0" y="0" width="72" height="72"></rect>
        <rect id="path-19" x="0" y="0" width="72" height="72"></rect>
        <rect id="path-21" x="404" y="372" width="196" height="196"></rect>
        <mask id="mask-22" maskContentUnits="userSpaceOnUse" maskUnits="objectBoundingBox" x="0" y="0" width="196" height="196" fill="white">
            <use xlink:href="#path-21"></use>
        </mask>
        <rect id="path-23" x="496" y="0" width="132" height="568"></rect>
        <mask id="mask-24" maskContentUnits="userSpaceOnUse" maskUnits="objectBoundingBox" x="0" y="0" width="132" height="568" fill="white">
            <use xlink:href="#path-23"></use>
        </mask>
    </defs>
    <g id="Symbols" stroke="none" stroke-width="1" fill="none" fill-rule="evenodd">
        <g id="Panels/About-KMB" transform="translate(-736.000000, -142.000000)">
            <g id="line-illustration-01" transform="translate(736.000000, 142.000000)">
                <g id="Group-10" transform="translate(100.000000, 468.000000)">
                    <mask id="mask-2" fill="white">
                        <use xlink:href="#path-1"></use>
                    </mask>
                    <rect stroke="#FFFFFF" stroke-width="4" x="2" y="2" width="96" height="96"></rect>
                    <path d="M84,-59.4277199 L-75.4277199,100 M102,-59.4277199 L-57.4277199,100 M120,-59.4277199 L-39.4277199,100 M138,-59.4277199 L-21.4277199,100 M156,-59.4277199 L-3.42771985,100 M174,-59.4277199 L14.5722801,100 M192,-59.4277199 L32.5722801,100 M210,-59.4277199 L50.5722801,100 M228,-59.4277199 L68.5722801,100 M246,-59.4277199 L86.5722801,100" id="Combined-Shape" stroke="#5E0A17" stroke-width="4" mask="url(#mask-2)"></path>
                </g>
                <g id="Group-10" transform="translate(368.000000, 468.000000)">
                    <mask id="mask-4" fill="white">
                        <use xlink:href="#path-3"></use>
                    </mask>
                    <rect stroke="#FFFFFF" stroke-width="4" x="2" y="2" width="36" height="36"></rect>
                    <path d="M33.9838277,-24 L-30,40 M41.2078469,-24 L-22.7759809,40 M48.431866,-24 L-15.5519617,40 M55.6558852,-24 L-8.32794258,40 M62.8799043,-24 L-1.10392344,40 M70.1039234,-24 L6.12009569,40 M77.3279426,-24 L13.3441148,40 M84.5519617,-24 L20.568134,40 M91.7759809,-24 L27.7921531,40 M99,-24 L35.0161723,40" id="Combined-Shape" stroke="#5E0A17" stroke-width="4" mask="url(#mask-4)"></path>
                </g>
                <g id="Group-10" transform="translate(0.000000, 232.000000)">
                    <mask id="mask-6" fill="white">
                        <use xlink:href="#path-5"></use>
                    </mask>
                    <rect stroke="#FFFFFF" stroke-width="4" x="2" y="2" width="68" height="68"></rect>
                    <path d="M61.0716902,-43 L-54,72 M74.0637246,-43 L-41.0079656,72 M87.0557591,-43 L-28.0159312,72 M100.047793,-43 L-15.0238967,72 M113.039828,-43 L-2.03186232,72 M126.031862,-43 L10.9601721,72 M139.023897,-43 L23.9522065,72 M152.015931,-43 L36.9442409,72 M165.007966,-43 L49.9362754,72 M178,-43 L62.9283098,72" id="Combined-Shape" stroke="#5E0A17" stroke-width="4" mask="url(#mask-6)"></path>
                    <mask id="mask-8" fill="white">
                        <use xlink:href="#path-7"></use>
                    </mask>
                    <rect stroke="#FFFFFF" stroke-width="4" x="2" y="2" width="68" height="68"></rect>
                </g>
                <g id="Group-10" transform="translate(0.000000, 300.000000)">
                    <mask id="mask-10" fill="white">
                        <use xlink:href="#path-9"></use>
                    </mask>
                    <rect stroke="#FFFFFF" stroke-width="4" x="2" y="2" width="68" height="68"></rect>
                    <path d="M61.0716902,-43 L-54,72 M74.0637246,-43 L-41.0079656,72 M87.0557591,-43 L-28.0159312,72 M100.047793,-43 L-15.0238967,72 M113.039828,-43 L-2.03186232,72 M126.031862,-43 L10.9601721,72 M139.023897,-43 L23.9522065,72 M152.015931,-43 L36.9442409,72 M165.007966,-43 L49.9362754,72 M178,-43 L62.9283098,72" id="Combined-Shape" stroke="#5E0A17" stroke-width="4" mask="url(#mask-10)"></path>
                    <mask id="mask-12" fill="white">
                        <use xlink:href="#path-11"></use>
                    </mask>
                    <rect stroke="#FFFFFF" stroke-width="4" x="2" y="2" width="68" height="68"></rect>
                </g>
                <g id="Group-10" transform="translate(68.000000, 300.000000)">
                    <mask id="mask-14" fill="white">
                        <use xlink:href="#path-13"></use>
                    </mask>
                    <rect stroke="#FFFFFF" stroke-width="4" x="2" y="2" width="68" height="68"></rect>
                    <path d="M61.0716902,-43 L-54,72 M74.0637246,-43 L-41.0079656,72 M87.0557591,-43 L-28.0159312,72 M100.047793,-43 L-15.0238967,72 M113.039828,-43 L-2.03186232,72 M126.031862,-43 L10.9601721,72 M139.023897,-43 L23.9522065,72 M152.015931,-43 L36.9442409,72 M165.007966,-43 L49.9362754,72 M178,-43 L62.9283098,72" id="Combined-Shape" stroke="#5E0A17" stroke-width="4" mask="url(#mask-14)"></path>
                    <mask id="mask-16" fill="white">
                        <use xlink:href="#path-15"></use>
                    </mask>
                    <rect stroke="#FFFFFF" stroke-width="4" x="2" y="2" width="68" height="68"></rect>
                </g>
                <g id="Group-10" transform="translate(496.000000, 372.000000)">
                    <mask id="mask-18" fill="white">
                        <use xlink:href="#path-17"></use>
                    </mask>
                    <rect stroke="#FFFFFF" stroke-width="4" x="2" y="2" width="68" height="68"></rect>
                    <path d="M61.0716902,-43 L-54,72 M74.0637246,-43 L-41.0079656,72 M87.0557591,-43 L-28.0159312,72 M100.047793,-43 L-15.0238967,72 M113.039828,-43 L-2.03186232,72 M126.031862,-43 L10.9601721,72 M139.023897,-43 L23.9522065,72 M152.015931,-43 L36.9442409,72 M165.007966,-43 L49.9362754,72 M178,-43 L62.9283098,72" id="Combined-Shape" stroke="#5E0A17" stroke-width="4" mask="url(#mask-18)"></path>
                    <mask id="mask-20" fill="white">
                        <use xlink:href="#path-19"></use>
                    </mask>
                    <rect stroke="#FFFFFF" stroke-width="4" x="2" y="2" width="68" height="68"></rect>
                </g>
                <rect id="Rectangle" stroke="#FFFFFF" stroke-width="4" x="2" y="370" width="196" height="196"></rect>
                <rect id="Rectangle" stroke="#FFFFFF" stroke-width="4" x="370" y="234" width="196" height="272"></rect>
                <rect id="Rectangle" stroke="#FFFFFF" stroke-width="4" x="102" y="470" width="304" height="96"></rect>
                <use id="Rectangle" stroke="#FFFFFF" mask="url(#mask-22)" stroke-width="8" stroke-dasharray="4,10" transform="translate(502.000000, 470.000000) scale(-1, -1) translate(-502.000000, -470.000000) " xlink:href="#path-21"></use>
                <use id="Rectangle-Copy-6" stroke="#FFFFFF" mask="url(#mask-24)" stroke-width="8" stroke-dasharray="4,10" transform="translate(562.000000, 284.000000) scale(-1, 1) translate(-562.000000, -284.000000) " xlink:href="#path-23"></use>
            </g>
        </g>
    </g>
</svg>