<?xml version="1.0" encoding="UTF-8"?>
<svg width="26px" height="26px" viewBox="0 0 26 26" version="1.1" xmlns="http://www.w3.org/2000/svg" xmlns:xlink="http://www.w3.org/1999/xlink">
    <title>facebook</title>
    <g id="Other-Resolutions" stroke="none" stroke-width="1" fill="none" fill-rule="evenodd">
        <g id="Home-xs-414" transform="translate(-134.000000, -7702.000000)" fill="#FFFFFF">
            <g id="facebook" transform="translate(134.200000, 7702.200000)">
                <path d="M24.1866667,0 L1.41333333,0 C0.633333333,0 0,0.633333333 0,1.41333333 L0,24.1866667 C0,24.9666667 0.633333333,25.6 1.41333333,25.6 L12.8,25.6 L12.8,15.4666667 L9.74,15.4666667 L9.74,11.7333333 L12.8,11.7333333 L12.8,8.97333333 C12.8,5.66666667 15.0933333,3.86666667 18.0466667,3.86666667 C19.46,3.86666667 20.98,3.97333333 21.3333333,4.02 L21.3333333,7.47333333 L18.98,7.47333333 C17.3733333,7.47333333 17.0666667,8.23333333 17.0666667,9.35333333 L17.0666667,11.7333333 L20.8933333,11.7333333 L20.3933333,15.4666667 L17.0666667,15.4666667 L17.0666667,25.6 L24.1866667,25.6 C24.9666667,25.6 25.6,24.9666667 25.6,24.1866667 L25.6,1.41333333 C25.6,0.633333333 24.9666667,0 24.1866667,0 Z" id="Path"></path>
            </g>
        </g>
    </g>
</svg>