<?xml version="1.0" encoding="UTF-8"?>
<svg width="26px" height="26px" viewBox="0 0 26 26" version="1.1" xmlns="http://www.w3.org/2000/svg" xmlns:xlink="http://www.w3.org/1999/xlink">
    <title>instagram</title>
    <g id="Other-Resolutions" stroke="none" stroke-width="1" fill="none" fill-rule="evenodd">
        <g id="Home-xs-414" transform="translate(-227.000000, -7702.000000)" fill="#FFFFFF">
            <g id="instagram" transform="translate(227.266667, 7702.200000)">
                <path d="M18.1333333,0 C22.24,0 25.6,3.36 25.6,7.46666667 L25.6,18.1333333 C25.6,22.24 22.24,25.6 18.1333333,25.6 L7.46666667,25.6 C3.36,25.6 2.84217094e-14,22.24 2.84217094e-14,18.1333333 L2.84217094e-14,7.46666667 C2.84217094e-14,3.36 3.36,0 7.46666667,0 Z M18.1333333,2.13333333 L7.46666667,2.13333333 C6.05333333,2.13333333 4.70666667,2.68666667 3.7,3.7 C2.69333333,4.71333333 2.13333333,6.05333333 2.13333333,7.46666667 L2.13333333,18.1333333 C2.13333333,19.5466667 2.68666667,20.8933333 3.7,21.9 C4.71333333,22.9066667 6.05333333,23.4666667 7.46666667,23.4666667 L18.1333333,23.4666667 C19.5466667,23.4666667 20.8933333,22.9133333 21.9,21.9 C22.9066667,20.8866667 23.4666667,19.5466667 23.4666667,18.1333333 L23.4666667,7.46666667 C23.4666667,6.05333333 22.9133333,4.70666667 21.9,3.7 C20.8866667,2.69333333 19.5466667,2.13333333 18.1333333,2.13333333 Z M12.8,6.4 C16.3333333,6.4 19.2,9.26666667 19.2,12.8 C19.2,16.3333333 16.3333333,19.2 12.8,19.2 C9.26666667,19.2 6.4,16.3333333 6.4,12.8 C6.4,9.26666667 9.26666667,6.4 12.8,6.4 Z M12.8,8.53333333 C10.4466667,8.53333333 8.53333333,10.4466667 8.53333333,12.8 C8.53333333,15.1533333 10.4466667,17.0666667 12.8,17.0666667 C15.1533333,17.0666667 17.0666667,15.1533333 17.0666667,12.8 C17.0666667,10.4466667 15.1533333,8.53333333 12.8,8.53333333 Z M19.7333333,4.26666667 C20.6133333,4.26666667 21.3333333,4.98 21.3333333,5.86666667 C21.3333333,6.75333333 20.6133333,7.46666667 19.7333333,7.46666667 C18.8466667,7.46666667 18.1333333,6.75333333 18.1333333,5.86666667 C18.1333333,4.98 18.8466667,4.26666667 19.7333333,4.26666667 Z" id="Combined-Shape"></path>
            </g>
        </g>
    </g>
</svg>