<?xml version="1.0" encoding="UTF-8"?>
<svg width="420px" height="56px" viewBox="0 0 420 56" version="1.1" xmlns="http://www.w3.org/2000/svg" xmlns:xlink="http://www.w3.org/1999/xlink">
    <title>La Palazzo</title>
    <g id="Website" stroke="none" stroke-width="1" fill="none" fill-rule="evenodd">
        <g id="La-Palazzo" transform="translate(0.812000, 0.784000)" fill="#18181B" fill-rule="nonzero">
            <path d="M12.312,20.88 C12.312,9.648 12.312,7.632 12.456,5.328 C12.6,2.808 13.176,1.584 15.264,1.224 C16.128,1.08 17.136,1.008 17.64,1.008 C17.928,1.008 18.216,0.864 18.216,0.576 C18.216,0.144 17.856,0 17.064,0 C14.904,0 9.648,0.216 9.288,0.216 C8.928,0.216 4.392,0 1.152,0 C0.36,0 -4.54747351e-13,0.144 -4.54747351e-13,0.576 C-4.54747351e-13,0.864 0.288,1.008 0.576,1.008 C1.224,1.008 2.448,1.08 3.024,1.224 C5.4,1.728 5.976,2.88 6.12,5.328 C6.264,7.632 6.264,9.648 6.264,20.88 L6.264,33.552 C6.264,40.464 6.264,46.152 5.904,49.176 C5.616,51.264 5.256,52.848 3.816,53.136 C3.168,53.28 2.304,53.424 1.656,53.424 C1.224,53.424 1.08,53.64 1.08,53.856 C1.08,54.288 1.44,54.432 2.232,54.432 C4.896,54.432 7.056,54.216 9.288,54.216 C16.272,54.216 22.392,54.648 28.584,54.648 C32.4,54.648 32.616,54.36 33.12,52.704 C33.696,50.616 34.2,46.296 34.2,45.504 C34.2,44.712 34.128,44.424 33.768,44.424 C33.336,44.424 33.192,44.784 33.12,45.36 C32.904,46.728 32.184,48.528 31.248,49.68 C29.52,51.768 26.352,51.84 22.536,51.84 C16.92,51.84 15.048,51.336 13.896,50.184 C12.6,48.888 12.312,44.28 12.312,33.696 L12.312,20.88 Z" id="Path"></path>
            <path d="M63.504,36.864 C63.792,36.864 63.936,37.008 64.08,37.224 L69.768,51.696 C70.2,52.776 69.768,53.136 69.48,53.28 C69.192,53.352 68.976,53.568 68.976,53.784 C68.976,54.144 69.408,54.216 70.776,54.288 C75.6,54.432 81,54.432 81.72,54.432 C82.512,54.432 82.8,54.288 82.8,53.928 C82.8,53.568 82.44,53.424 81.936,53.424 C81.432,53.424 80.424,53.424 79.488,53.064 C78.48,52.704 76.392,51.768 74.016,46.08 C70.2,37.08 60.408,11.952 59.4,9.576 C58.608,7.56 58.32,7.272 57.96,7.272 C57.456,7.272 57.24,7.632 56.448,9.72 L42.048,47.664 C40.824,50.688 39.6,53.064 36.504,53.352 C36.072,53.424 35.424,53.424 35.064,53.424 C34.488,53.424 34.2,53.64 34.2,53.928 C34.2,54.288 34.56,54.432 35.352,54.432 C38.376,54.432 41.544,54.216 42.264,54.216 C43.056,54.216 46.368,54.432 47.952,54.432 C48.456,54.432 49.032,54.288 49.032,53.928 C49.032,53.64 48.816,53.424 48.168,53.424 C47.952,53.424 47.88,53.424 47.664,53.424 C46.08,53.424 45.288,52.848 45.288,51.552 C45.288,50.4 45.792,48.456 46.512,46.44 L49.68,37.44 C49.824,37.08 50.04,36.864 50.4,36.864 L63.504,36.864 Z M51.12,34.344 C50.976,34.344 50.832,34.2 50.976,33.912 L56.376,18 C56.736,16.992 56.808,16.992 57.168,18 L62.856,33.912 C62.928,34.128 62.928,34.344 62.64,34.344 L51.12,34.344 Z" id="Shape"></path>
            <path d="M116.64,33.552 C116.64,40.464 116.64,46.152 116.28,49.176 C115.992,51.264 115.632,52.848 114.192,53.136 C113.544,53.28 112.68,53.424 112.032,53.424 C111.6,53.424 111.456,53.64 111.456,53.856 C111.456,54.288 111.816,54.432 112.608,54.432 C114.768,54.432 119.304,54.216 119.52,54.216 C119.88,54.216 124.416,54.432 128.376,54.432 C129.168,54.432 129.528,54.216 129.528,53.856 C129.528,53.64 129.384,53.424 128.952,53.424 C128.304,53.424 126.72,53.28 125.712,53.136 C123.552,52.848 123.12,51.264 122.904,49.176 C122.544,46.152 122.544,40.464 122.544,33.552 L122.544,3.96 C122.544,3.24 122.688,2.736 123.12,2.592 C123.768,2.304 124.992,2.16 126.216,2.16 C127.872,2.16 132.264,1.872 136.08,5.76 C139.896,9.648 140.112,14.472 140.112,16.272 C140.112,23.832 134.64,28.584 127.656,28.584 C126.144,28.584 125.712,28.656 125.712,29.232 C125.712,29.592 126.144,29.736 126.504,29.736 C126.864,29.808 127.656,29.808 128.016,29.808 C138.24,29.808 145.728,22.896 145.728,13.536 C145.728,8.856 143.712,5.616 142.128,4.104 C140.976,3.024 137.736,0 128.736,0 C125.424,0 121.248,0.216 119.664,0.216 C119.088,0.216 114.768,0 111.528,0 C110.736,0 110.376,0.144 110.376,0.576 C110.376,0.864 110.664,1.008 110.952,1.008 C111.6,1.008 112.824,1.08 113.4,1.224 C115.776,1.728 116.352,2.88 116.496,5.328 C116.64,7.632 116.64,9.648 116.64,20.88 L116.64,33.552 Z" id="Path"></path>
            <path d="M177.48,36.864 C177.768,36.864 177.912,37.008 178.056,37.224 L183.744,51.696 C184.176,52.776 183.744,53.136 183.456,53.28 C183.168,53.352 182.952,53.568 182.952,53.784 C182.952,54.144 183.384,54.216 184.752,54.288 C189.576,54.432 194.976,54.432 195.696,54.432 C196.488,54.432 196.776,54.288 196.776,53.928 C196.776,53.568 196.416,53.424 195.912,53.424 C195.408,53.424 194.4,53.424 193.464,53.064 C192.456,52.704 190.368,51.768 187.992,46.08 C184.176,37.08 174.384,11.952 173.376,9.576 C172.584,7.56 172.296,7.272 171.936,7.272 C171.432,7.272 171.216,7.632 170.424,9.72 L156.024,47.664 C154.8,50.688 153.576,53.064 150.48,53.352 C150.048,53.424 149.4,53.424 149.04,53.424 C148.464,53.424 148.176,53.64 148.176,53.928 C148.176,54.288 148.536,54.432 149.328,54.432 C152.352,54.432 155.52,54.216 156.24,54.216 C157.032,54.216 160.344,54.432 161.928,54.432 C162.432,54.432 163.008,54.288 163.008,53.928 C163.008,53.64 162.792,53.424 162.144,53.424 C161.928,53.424 161.856,53.424 161.64,53.424 C160.056,53.424 159.264,52.848 159.264,51.552 C159.264,50.4 159.768,48.456 160.488,46.44 L163.656,37.44 C163.8,37.08 164.016,36.864 164.376,36.864 L177.48,36.864 Z M165.096,34.344 C164.952,34.344 164.808,34.2 164.952,33.912 L170.352,18 C170.712,16.992 170.784,16.992 171.144,18 L176.832,33.912 C176.904,34.128 176.904,34.344 176.616,34.344 L165.096,34.344 Z" id="Shape"></path>
            <path d="M211.464,25.848 C211.464,16.344 211.392,14.76 211.536,12.816 C211.68,10.728 212.112,9.576 214.128,9.288 C214.848,9.216 215.568,9.144 216.072,9.144 C216.504,9.144 216.864,8.928 216.864,8.64 C216.864,8.352 216.648,8.136 215.928,8.136 C213.912,8.136 209.52,8.352 208.512,8.352 C208.368,8.352 204.048,8.136 201.024,8.136 C200.304,8.136 199.944,8.28 199.944,8.64 C199.944,8.928 200.232,9.144 200.736,9.144 C201.312,9.144 202.104,9.144 202.536,9.216 C204.984,9.504 205.272,10.8 205.416,12.816 C205.56,14.76 205.56,16.344 205.56,25.848 L205.56,36.648 C205.56,42.192 205.704,47.16 205.272,49.896 C205.056,51.624 204.624,53.064 203.4,53.28 C202.824,53.424 202.248,53.424 201.672,53.424 C201.096,53.424 200.88,53.64 200.88,53.856 C200.88,54.288 201.312,54.432 202.032,54.432 C204.552,54.432 205.992,54.216 208.368,54.216 C215.568,54.216 220.968,54.576 225.864,54.576 C229.32,54.576 229.248,54.216 229.68,52.776 C230.112,51.12 230.544,47.016 230.544,46.296 C230.544,45.576 230.4,45.36 230.112,45.36 C229.752,45.36 229.608,45.648 229.536,46.224 C229.392,47.304 228.888,48.744 228.168,49.824 C226.584,51.84 223.704,51.84 220.536,51.84 C215.568,51.84 214.128,51.408 212.976,50.4 C211.752,49.248 211.464,45.072 211.464,36.792 L211.464,25.848 Z" id="Path"></path>
            <path d="M259.56,36.864 C259.848,36.864 259.992,37.008 260.136,37.224 L265.824,51.696 C266.256,52.776 265.824,53.136 265.536,53.28 C265.248,53.352 265.032,53.568 265.032,53.784 C265.032,54.144 265.464,54.216 266.832,54.288 C271.656,54.432 277.056,54.432 277.776,54.432 C278.568,54.432 278.856,54.288 278.856,53.928 C278.856,53.568 278.496,53.424 277.992,53.424 C277.488,53.424 276.48,53.424 275.544,53.064 C274.536,52.704 272.448,51.768 270.072,46.08 C266.256,37.08 256.464,11.952 255.456,9.576 C254.664,7.56 254.376,7.272 254.016,7.272 C253.512,7.272 253.296,7.632 252.504,9.72 L238.104,47.664 C236.88,50.688 235.656,53.064 232.56,53.352 C232.128,53.424 231.48,53.424 231.12,53.424 C230.544,53.424 230.256,53.64 230.256,53.928 C230.256,54.288 230.616,54.432 231.408,54.432 C234.432,54.432 237.6,54.216 238.32,54.216 C239.112,54.216 242.424,54.432 244.008,54.432 C244.512,54.432 245.088,54.288 245.088,53.928 C245.088,53.64 244.872,53.424 244.224,53.424 C244.008,53.424 243.936,53.424 243.72,53.424 C242.136,53.424 241.344,52.848 241.344,51.552 C241.344,50.4 241.848,48.456 242.568,46.44 L245.736,37.44 C245.88,37.08 246.096,36.864 246.456,36.864 L259.56,36.864 Z M247.176,34.344 C247.032,34.344 246.888,34.2 247.032,33.912 L252.432,18 C252.792,16.992 252.864,16.992 253.224,18 L258.912,33.912 C258.984,34.128 258.984,34.344 258.696,34.344 L247.176,34.344 Z" id="Shape"></path>
            <path d="M288.936,51.552 C298.512,37.584 307.152,24.264 316.656,9.936 C317.016,9.432 317.16,9.072 317.16,8.784 C317.16,8.352 316.656,8.352 315.72,8.352 L298.152,8.352 C297.288,8.352 294.12,8.352 287.28,8.136 C285.408,8.064 285.048,7.704 284.4,7.704 C283.968,7.704 283.824,7.992 283.68,8.928 C283.392,10.8 282.456,16.56 282.456,17.352 C282.456,17.856 282.528,18.216 282.816,18.216 C283.104,18.216 283.32,18 283.536,17.064 C283.896,15.336 284.472,12.456 286.704,11.664 C288.936,10.872 292.392,10.872 296.28,10.872 L309.456,10.872 C300.744,24.84 291.528,38.088 282.096,51.984 C281.376,53.064 281.232,53.352 281.232,53.712 C281.232,54.144 281.592,54.216 282.384,54.216 C293.688,54.216 303.912,54.504 314.496,54.504 C316.08,54.504 316.152,54.432 316.656,52.776 C317.088,51.264 317.952,47.304 317.952,45.288 C317.952,44.568 317.88,44.208 317.448,44.208 C317.16,44.208 317.016,44.64 316.872,45.216 C316.656,46.296 316.512,47.304 315.792,48.6 C314.64,50.904 312.12,51.552 305.64,51.552 L288.936,51.552 Z" id="Path"></path>
            <path d="M333,51.552 C342.576,37.584 351.216,24.264 360.72,9.936 C361.08,9.432 361.224,9.072 361.224,8.784 C361.224,8.352 360.72,8.352 359.784,8.352 L342.216,8.352 C341.352,8.352 338.184,8.352 331.344,8.136 C329.472,8.064 329.112,7.704 328.464,7.704 C328.032,7.704 327.888,7.992 327.744,8.928 C327.456,10.8 326.52,16.56 326.52,17.352 C326.52,17.856 326.592,18.216 326.88,18.216 C327.168,18.216 327.384,18 327.6,17.064 C327.96,15.336 328.536,12.456 330.768,11.664 C333,10.872 336.456,10.872 340.344,10.872 L353.52,10.872 C344.808,24.84 335.592,38.088 326.16,51.984 C325.44,53.064 325.296,53.352 325.296,53.712 C325.296,54.144 325.656,54.216 326.448,54.216 C337.752,54.216 347.976,54.504 358.56,54.504 C360.144,54.504 360.216,54.432 360.72,52.776 C361.152,51.264 362.016,47.304 362.016,45.288 C362.016,44.568 361.944,44.208 361.512,44.208 C361.224,44.208 361.08,44.64 360.936,45.216 C360.72,46.296 360.576,47.304 359.856,48.6 C358.704,50.904 356.184,51.552 349.704,51.552 L333,51.552 Z" id="Path"></path>
            <path d="M393.408,55.224 C408.744,55.224 418.896,43.992 418.896,30.24 C418.896,15.768 408.024,7.272 393.768,7.272 C375.984,7.272 368.568,21.6 368.568,31.176 C368.568,42.12 375.768,55.224 393.408,55.224 Z M395.208,52.776 C383.112,52.776 375.264,43.416 375.264,29.304 C375.264,15.696 383.328,9.504 393.336,9.504 C403.2,9.504 412.128,17.568 412.128,32.04 C412.128,50.328 400.032,52.776 395.208,52.776 Z" id="Shape"></path>
        </g>
    </g>
</svg>