<?xml version="1.0" encoding="UTF-8"?>
<svg width="420px" height="96px" viewBox="0 0 420 96" version="1.1" xmlns="http://www.w3.org/2000/svg" xmlns:xlink="http://www.w3.org/1999/xlink">
    <title>La Palazzo Commercial</title>
    <g id="Website" stroke="none" stroke-width="1" fill="none" fill-rule="evenodd">
        <g id="La-Palazzo-Commercial" transform="translate(0.812000, 0.784000)" fill="#18181B" fill-rule="nonzero">
            <path d="M12.312,20.88 C12.312,9.648 12.312,7.632 12.456,5.328 C12.6,2.808 13.176,1.584 15.264,1.224 C16.128,1.08 17.136,1.008 17.64,1.008 C17.928,1.008 18.216,0.864 18.216,0.576 C18.216,0.144 17.856,0 17.064,0 C14.904,0 9.648,0.216 9.288,0.216 C8.928,0.216 4.392,0 1.152,0 C0.36,0 0,0.144 0,0.576 C0,0.864 0.288,1.008 0.576,1.008 C1.224,1.008 2.448,1.08 3.024,1.224 C5.4,1.728 5.976,2.88 6.12,5.328 C6.264,7.632 6.264,9.648 6.264,20.88 L6.264,33.552 C6.264,40.464 6.264,46.152 5.904,49.176 C5.616,51.264 5.256,52.848 3.816,53.136 C3.168,53.28 2.304,53.424 1.656,53.424 C1.224,53.424 1.08,53.64 1.08,53.856 C1.08,54.288 1.44,54.432 2.232,54.432 C4.896,54.432 7.056,54.216 9.288,54.216 C16.272,54.216 22.392,54.648 28.584,54.648 C32.4,54.648 32.616,54.36 33.12,52.704 C33.696,50.616 34.2,46.296 34.2,45.504 C34.2,44.712 34.128,44.424 33.768,44.424 C33.336,44.424 33.192,44.784 33.12,45.36 C32.904,46.728 32.184,48.528 31.248,49.68 C29.52,51.768 26.352,51.84 22.536,51.84 C16.92,51.84 15.048,51.336 13.896,50.184 C12.6,48.888 12.312,44.28 12.312,33.696 L12.312,20.88 Z" id="Path"></path>
            <path d="M63.504,36.864 C63.792,36.864 63.936,37.008 64.08,37.224 L69.768,51.696 C70.2,52.776 69.768,53.136 69.48,53.28 C69.192,53.352 68.976,53.568 68.976,53.784 C68.976,54.144 69.408,54.216 70.776,54.288 C75.6,54.432 81,54.432 81.72,54.432 C82.512,54.432 82.8,54.288 82.8,53.928 C82.8,53.568 82.44,53.424 81.936,53.424 C81.432,53.424 80.424,53.424 79.488,53.064 C78.48,52.704 76.392,51.768 74.016,46.08 C70.2,37.08 60.408,11.952 59.4,9.576 C58.608,7.56 58.32,7.272 57.96,7.272 C57.456,7.272 57.24,7.632 56.448,9.72 L42.048,47.664 C40.824,50.688 39.6,53.064 36.504,53.352 C36.072,53.424 35.424,53.424 35.064,53.424 C34.488,53.424 34.2,53.64 34.2,53.928 C34.2,54.288 34.56,54.432 35.352,54.432 C38.376,54.432 41.544,54.216 42.264,54.216 C43.056,54.216 46.368,54.432 47.952,54.432 C48.456,54.432 49.032,54.288 49.032,53.928 C49.032,53.64 48.816,53.424 48.168,53.424 C47.952,53.424 47.88,53.424 47.664,53.424 C46.08,53.424 45.288,52.848 45.288,51.552 C45.288,50.4 45.792,48.456 46.512,46.44 L49.68,37.44 C49.824,37.08 50.04,36.864 50.4,36.864 L63.504,36.864 Z M51.12,34.344 C50.976,34.344 50.832,34.2 50.976,33.912 L56.376,18 C56.736,16.992 56.808,16.992 57.168,18 L62.856,33.912 C62.928,34.128 62.928,34.344 62.64,34.344 L51.12,34.344 Z" id="Shape"></path>
            <path d="M116.64,33.552 C116.64,40.464 116.64,46.152 116.28,49.176 C115.992,51.264 115.632,52.848 114.192,53.136 C113.544,53.28 112.68,53.424 112.032,53.424 C111.6,53.424 111.456,53.64 111.456,53.856 C111.456,54.288 111.816,54.432 112.608,54.432 C114.768,54.432 119.304,54.216 119.52,54.216 C119.88,54.216 124.416,54.432 128.376,54.432 C129.168,54.432 129.528,54.216 129.528,53.856 C129.528,53.64 129.384,53.424 128.952,53.424 C128.304,53.424 126.72,53.28 125.712,53.136 C123.552,52.848 123.12,51.264 122.904,49.176 C122.544,46.152 122.544,40.464 122.544,33.552 L122.544,3.96 C122.544,3.24 122.688,2.736 123.12,2.592 C123.768,2.304 124.992,2.16 126.216,2.16 C127.872,2.16 132.264,1.872 136.08,5.76 C139.896,9.648 140.112,14.472 140.112,16.272 C140.112,23.832 134.64,28.584 127.656,28.584 C126.144,28.584 125.712,28.656 125.712,29.232 C125.712,29.592 126.144,29.736 126.504,29.736 C126.864,29.808 127.656,29.808 128.016,29.808 C138.24,29.808 145.728,22.896 145.728,13.536 C145.728,8.856 143.712,5.616 142.128,4.104 C140.976,3.024 137.736,0 128.736,0 C125.424,0 121.248,0.216 119.664,0.216 C119.088,0.216 114.768,0 111.528,0 C110.736,0 110.376,0.144 110.376,0.576 C110.376,0.864 110.664,1.008 110.952,1.008 C111.6,1.008 112.824,1.08 113.4,1.224 C115.776,1.728 116.352,2.88 116.496,5.328 C116.64,7.632 116.64,9.648 116.64,20.88 L116.64,33.552 Z" id="Path"></path>
            <path d="M177.48,36.864 C177.768,36.864 177.912,37.008 178.056,37.224 L183.744,51.696 C184.176,52.776 183.744,53.136 183.456,53.28 C183.168,53.352 182.952,53.568 182.952,53.784 C182.952,54.144 183.384,54.216 184.752,54.288 C189.576,54.432 194.976,54.432 195.696,54.432 C196.488,54.432 196.776,54.288 196.776,53.928 C196.776,53.568 196.416,53.424 195.912,53.424 C195.408,53.424 194.4,53.424 193.464,53.064 C192.456,52.704 190.368,51.768 187.992,46.08 C184.176,37.08 174.384,11.952 173.376,9.576 C172.584,7.56 172.296,7.272 171.936,7.272 C171.432,7.272 171.216,7.632 170.424,9.72 L156.024,47.664 C154.8,50.688 153.576,53.064 150.48,53.352 C150.048,53.424 149.4,53.424 149.04,53.424 C148.464,53.424 148.176,53.64 148.176,53.928 C148.176,54.288 148.536,54.432 149.328,54.432 C152.352,54.432 155.52,54.216 156.24,54.216 C157.032,54.216 160.344,54.432 161.928,54.432 C162.432,54.432 163.008,54.288 163.008,53.928 C163.008,53.64 162.792,53.424 162.144,53.424 C161.928,53.424 161.856,53.424 161.64,53.424 C160.056,53.424 159.264,52.848 159.264,51.552 C159.264,50.4 159.768,48.456 160.488,46.44 L163.656,37.44 C163.8,37.08 164.016,36.864 164.376,36.864 L177.48,36.864 Z M165.096,34.344 C164.952,34.344 164.808,34.2 164.952,33.912 L170.352,18 C170.712,16.992 170.784,16.992 171.144,18 L176.832,33.912 C176.904,34.128 176.904,34.344 176.616,34.344 L165.096,34.344 Z" id="Shape"></path>
            <path d="M211.464,25.848 C211.464,16.344 211.392,14.76 211.536,12.816 C211.68,10.728 212.112,9.576 214.128,9.288 C214.848,9.216 215.568,9.144 216.072,9.144 C216.504,9.144 216.864,8.928 216.864,8.64 C216.864,8.352 216.648,8.136 215.928,8.136 C213.912,8.136 209.52,8.352 208.512,8.352 C208.368,8.352 204.048,8.136 201.024,8.136 C200.304,8.136 199.944,8.28 199.944,8.64 C199.944,8.928 200.232,9.144 200.736,9.144 C201.312,9.144 202.104,9.144 202.536,9.216 C204.984,9.504 205.272,10.8 205.416,12.816 C205.56,14.76 205.56,16.344 205.56,25.848 L205.56,36.648 C205.56,42.192 205.704,47.16 205.272,49.896 C205.056,51.624 204.624,53.064 203.4,53.28 C202.824,53.424 202.248,53.424 201.672,53.424 C201.096,53.424 200.88,53.64 200.88,53.856 C200.88,54.288 201.312,54.432 202.032,54.432 C204.552,54.432 205.992,54.216 208.368,54.216 C215.568,54.216 220.968,54.576 225.864,54.576 C229.32,54.576 229.248,54.216 229.68,52.776 C230.112,51.12 230.544,47.016 230.544,46.296 C230.544,45.576 230.4,45.36 230.112,45.36 C229.752,45.36 229.608,45.648 229.536,46.224 C229.392,47.304 228.888,48.744 228.168,49.824 C226.584,51.84 223.704,51.84 220.536,51.84 C215.568,51.84 214.128,51.408 212.976,50.4 C211.752,49.248 211.464,45.072 211.464,36.792 L211.464,25.848 Z" id="Path"></path>
            <path d="M259.56,36.864 C259.848,36.864 259.992,37.008 260.136,37.224 L265.824,51.696 C266.256,52.776 265.824,53.136 265.536,53.28 C265.248,53.352 265.032,53.568 265.032,53.784 C265.032,54.144 265.464,54.216 266.832,54.288 C271.656,54.432 277.056,54.432 277.776,54.432 C278.568,54.432 278.856,54.288 278.856,53.928 C278.856,53.568 278.496,53.424 277.992,53.424 C277.488,53.424 276.48,53.424 275.544,53.064 C274.536,52.704 272.448,51.768 270.072,46.08 C266.256,37.08 256.464,11.952 255.456,9.576 C254.664,7.56 254.376,7.272 254.016,7.272 C253.512,7.272 253.296,7.632 252.504,9.72 L238.104,47.664 C236.88,50.688 235.656,53.064 232.56,53.352 C232.128,53.424 231.48,53.424 231.12,53.424 C230.544,53.424 230.256,53.64 230.256,53.928 C230.256,54.288 230.616,54.432 231.408,54.432 C234.432,54.432 237.6,54.216 238.32,54.216 C239.112,54.216 242.424,54.432 244.008,54.432 C244.512,54.432 245.088,54.288 245.088,53.928 C245.088,53.64 244.872,53.424 244.224,53.424 C244.008,53.424 243.936,53.424 243.72,53.424 C242.136,53.424 241.344,52.848 241.344,51.552 C241.344,50.4 241.848,48.456 242.568,46.44 L245.736,37.44 C245.88,37.08 246.096,36.864 246.456,36.864 L259.56,36.864 Z M247.176,34.344 C247.032,34.344 246.888,34.2 247.032,33.912 L252.432,18 C252.792,16.992 252.864,16.992 253.224,18 L258.912,33.912 C258.984,34.128 258.984,34.344 258.696,34.344 L247.176,34.344 Z" id="Shape"></path>
            <path d="M288.936,51.552 C298.512,37.584 307.152,24.264 316.656,9.936 C317.016,9.432 317.16,9.072 317.16,8.784 C317.16,8.352 316.656,8.352 315.72,8.352 L298.152,8.352 C297.288,8.352 294.12,8.352 287.28,8.136 C285.408,8.064 285.048,7.704 284.4,7.704 C283.968,7.704 283.824,7.992 283.68,8.928 C283.392,10.8 282.456,16.56 282.456,17.352 C282.456,17.856 282.528,18.216 282.816,18.216 C283.104,18.216 283.32,18 283.536,17.064 C283.896,15.336 284.472,12.456 286.704,11.664 C288.936,10.872 292.392,10.872 296.28,10.872 L309.456,10.872 C300.744,24.84 291.528,38.088 282.096,51.984 C281.376,53.064 281.232,53.352 281.232,53.712 C281.232,54.144 281.592,54.216 282.384,54.216 C293.688,54.216 303.912,54.504 314.496,54.504 C316.08,54.504 316.152,54.432 316.656,52.776 C317.088,51.264 317.952,47.304 317.952,45.288 C317.952,44.568 317.88,44.208 317.448,44.208 C317.16,44.208 317.016,44.64 316.872,45.216 C316.656,46.296 316.512,47.304 315.792,48.6 C314.64,50.904 312.12,51.552 305.64,51.552 L288.936,51.552 Z" id="Path"></path>
            <path d="M333,51.552 C342.576,37.584 351.216,24.264 360.72,9.936 C361.08,9.432 361.224,9.072 361.224,8.784 C361.224,8.352 360.72,8.352 359.784,8.352 L342.216,8.352 C341.352,8.352 338.184,8.352 331.344,8.136 C329.472,8.064 329.112,7.704 328.464,7.704 C328.032,7.704 327.888,7.992 327.744,8.928 C327.456,10.8 326.52,16.56 326.52,17.352 C326.52,17.856 326.592,18.216 326.88,18.216 C327.168,18.216 327.384,18 327.6,17.064 C327.96,15.336 328.536,12.456 330.768,11.664 C333,10.872 336.456,10.872 340.344,10.872 L353.52,10.872 C344.808,24.84 335.592,38.088 326.16,51.984 C325.44,53.064 325.296,53.352 325.296,53.712 C325.296,54.144 325.656,54.216 326.448,54.216 C337.752,54.216 347.976,54.504 358.56,54.504 C360.144,54.504 360.216,54.432 360.72,52.776 C361.152,51.264 362.016,47.304 362.016,45.288 C362.016,44.568 361.944,44.208 361.512,44.208 C361.224,44.208 361.08,44.64 360.936,45.216 C360.72,46.296 360.576,47.304 359.856,48.6 C358.704,50.904 356.184,51.552 349.704,51.552 L333,51.552 Z" id="Path"></path>
            <path d="M393.408,55.224 C408.744,55.224 418.896,43.992 418.896,30.24 C418.896,15.768 408.024,7.272 393.768,7.272 C375.984,7.272 368.568,21.6 368.568,31.176 C368.568,42.12 375.768,55.224 393.408,55.224 Z M395.208,52.776 C383.112,52.776 375.264,43.416 375.264,29.304 C375.264,15.696 383.328,9.504 393.336,9.504 C403.2,9.504 412.128,17.568 412.128,32.04 C412.128,50.328 400.032,52.776 395.208,52.776 Z" id="Shape"></path>
            <path d="M113.676,94.664 C115.468,94.664 117.612,94.504 118.732,94.024 C119.18,93.832 119.276,93.736 119.468,93.224 C119.692,92.52 120.108,89.928 120.108,89.672 C120.108,89.448 120.108,89.224 119.948,89.224 C119.756,89.224 119.66,89.384 119.596,89.704 C119.436,90.6 119.116,91.4 118.54,92.008 C117.42,93.096 115.82,93.32 113.644,93.32 C108.012,93.32 103.692,88.648 103.692,83.336 C103.692,80.52 104.172,78.216 106.252,76.328 C107.212,75.464 108.844,74.472 112.396,74.472 C114.86,74.472 117.1,75.272 118.06,76.104 C118.86,76.712 119.308,77.96 119.308,78.888 C119.308,79.304 119.34,79.496 119.564,79.496 C119.724,79.496 119.788,79.336 119.82,78.888 C119.852,78.504 119.852,76.84 119.884,75.944 C119.948,74.92 120.044,74.632 120.044,74.376 C120.044,74.216 120.012,74.056 119.756,74.056 C118.988,74.024 117.964,73.864 116.94,73.704 C115.372,73.48 114.188,73.352 112.716,73.352 C108.428,73.352 105.836,74.536 104.108,76.2 C101.58,78.632 100.876,81.8 100.876,83.592 C100.876,86.248 101.58,89.384 104.3,91.752 C106.572,93.704 109.452,94.664 113.676,94.664 Z" id="Path"></path>
            <path d="M134.604,94.664 C141.42,94.664 145.932,89.672 145.932,83.56 C145.932,77.128 141.1,73.352 134.764,73.352 C126.86,73.352 123.564,79.72 123.564,83.976 C123.564,88.84 126.764,94.664 134.604,94.664 Z M135.404,93.576 C130.028,93.576 126.54,89.416 126.54,83.144 C126.54,77.096 130.124,74.344 134.572,74.344 C138.956,74.344 142.924,77.928 142.924,84.36 C142.924,92.488 137.548,93.576 135.404,93.576 Z" id="Shape"></path>
            <path d="M171.788,74.152 C171.756,73.64 171.66,73.352 171.468,73.352 C171.276,73.352 171.148,73.544 170.988,73.896 L162.828,90.472 L154.252,73.864 C154.028,73.448 153.932,73.352 153.772,73.352 C153.612,73.352 153.484,73.608 153.42,74.152 L151.276,91.72 C151.116,93 150.828,93.768 150.06,93.832 C149.708,93.864 149.676,93.864 149.452,93.864 C149.164,93.864 149.036,93.992 149.036,94.056 C149.036,94.28 149.228,94.312 149.516,94.312 C150.316,94.312 151.66,94.216 151.98,94.216 C152.236,94.216 153.612,94.312 154.636,94.312 C154.988,94.312 155.18,94.28 155.18,94.056 C155.18,93.992 155.116,93.896 154.86,93.864 C154.54,93.832 154.316,93.832 153.964,93.768 C153.324,93.64 153.164,93.16 153.164,92.808 C153.164,92.328 153.164,92.04 153.196,91.592 L154.38,79.272 C154.636,79.944 157.772,86.152 157.964,86.536 C158.156,86.824 160.716,91.944 161.228,92.872 C161.836,93.96 161.996,94.248 162.188,94.248 C162.476,94.248 162.572,93.96 163.18,92.712 L169.964,78.952 L171.372,92.648 C171.436,93.096 171.34,93.48 171.18,93.544 C171.02,93.608 170.892,93.736 170.892,93.832 C170.892,93.992 171.148,94.056 171.852,94.12 C172.876,94.184 176.332,94.312 176.908,94.312 C177.26,94.312 177.388,94.216 177.388,94.056 C177.388,93.896 177.1,93.864 176.972,93.864 C176.524,93.832 175.884,93.768 175.34,93.64 C174.092,93.352 173.9,91.56 173.804,90.792 L171.788,74.152 Z" id="Path"></path>
            <path d="M201.356,74.152 C201.324,73.64 201.228,73.352 201.036,73.352 C200.844,73.352 200.716,73.544 200.556,73.896 L192.396,90.472 L183.82,73.864 C183.596,73.448 183.5,73.352 183.34,73.352 C183.18,73.352 183.052,73.608 182.988,74.152 L180.844,91.72 C180.684,93 180.396,93.768 179.628,93.832 C179.276,93.864 179.244,93.864 179.02,93.864 C178.732,93.864 178.604,93.992 178.604,94.056 C178.604,94.28 178.796,94.312 179.084,94.312 C179.884,94.312 181.228,94.216 181.548,94.216 C181.804,94.216 183.18,94.312 184.204,94.312 C184.556,94.312 184.748,94.28 184.748,94.056 C184.748,93.992 184.684,93.896 184.428,93.864 C184.108,93.832 183.884,93.832 183.532,93.768 C182.892,93.64 182.732,93.16 182.732,92.808 C182.732,92.328 182.732,92.04 182.764,91.592 L183.948,79.272 C184.204,79.944 187.34,86.152 187.532,86.536 C187.724,86.824 190.284,91.944 190.796,92.872 C191.404,93.96 191.564,94.248 191.756,94.248 C192.044,94.248 192.14,93.96 192.748,92.712 L199.532,78.952 L200.94,92.648 C201.004,93.096 200.908,93.48 200.748,93.544 C200.588,93.608 200.46,93.736 200.46,93.832 C200.46,93.992 200.716,94.056 201.42,94.12 C202.444,94.184 205.9,94.312 206.476,94.312 C206.828,94.312 206.956,94.216 206.956,94.056 C206.956,93.896 206.668,93.864 206.54,93.864 C206.092,93.832 205.452,93.768 204.908,93.64 C203.66,93.352 203.468,91.56 203.372,90.792 L201.356,74.152 Z" id="Path"></path>
            <path d="M211.82,86.408 C211.82,88.84 211.788,90.152 211.756,91.24 C211.692,93.224 211.308,93.64 210.732,93.768 C210.508,93.832 210.284,93.864 210.092,93.864 C209.932,93.864 209.804,93.96 209.804,94.088 C209.804,94.248 209.964,94.312 210.252,94.312 C211.02,94.312 211.628,94.216 212.364,94.216 C213.548,94.216 215.02,94.28 216.14,94.312 C217.26,94.312 218.156,94.376 220.268,94.376 C221.324,94.376 221.548,94.312 221.676,93.672 C221.772,93.128 222.028,91.112 222.028,90.888 C222.028,90.696 222.028,90.408 221.836,90.408 C221.708,90.408 221.612,90.536 221.548,90.856 C221.292,92.04 221.068,92.68 220.108,92.968 C219.308,93.192 218.284,93.16 217.676,93.16 C216.588,93.16 215.82,93.096 215.34,92.872 C214.668,92.584 214.508,91.976 214.444,90.792 C214.412,90.248 214.444,87.432 214.444,86.44 L214.444,84.104 C214.444,83.976 214.476,83.88 214.668,83.88 C215.18,83.88 217.772,83.944 218.508,84.008 C219.724,84.104 219.916,84.552 220.044,84.968 C220.108,85.224 220.14,85.544 220.14,85.736 C220.14,85.96 220.172,86.152 220.332,86.152 C220.46,86.152 220.524,86.056 220.556,85.8 C220.588,85.384 220.588,84.744 220.684,83.848 C220.78,82.92 220.908,82.312 220.908,82.152 C220.908,81.992 220.844,81.96 220.78,81.96 C220.652,81.96 220.556,82.024 220.428,82.216 C220.172,82.568 219.692,82.664 218.956,82.696 C218.284,82.76 215.02,82.792 214.636,82.792 C214.476,82.792 214.444,82.664 214.444,82.472 L214.444,75.208 C214.444,75.016 214.508,74.952 214.604,74.952 C214.668,74.952 217.836,74.984 218.252,75.016 C219.852,75.112 220.14,75.336 220.332,75.976 C220.428,76.2 220.524,76.52 220.556,77 C220.556,77.224 220.62,77.352 220.78,77.352 C220.94,77.352 221.004,77.16 221.004,76.872 C221.036,76.264 221.068,75.752 221.1,75.208 C221.164,74.408 221.356,73.96 221.356,73.768 C221.356,73.608 221.292,73.544 221.228,73.544 C221.1,73.544 221.068,73.576 220.876,73.64 C220.62,73.736 220.268,73.768 219.628,73.8 C218.988,73.832 213.292,73.832 213.132,73.832 C211.34,73.8 210.476,73.736 209.836,73.736 C209.516,73.736 209.356,73.8 209.356,73.992 C209.356,74.088 209.548,74.184 209.772,74.184 C210.028,74.184 210.348,74.216 210.54,74.248 C211.468,74.44 211.692,74.888 211.756,75.784 C211.82,76.648 211.82,77.416 211.82,81.608 L211.82,86.408 Z" id="Path"></path>
            <path d="M229.196,86.408 C229.196,88.808 229.228,91.432 229.068,92.584 C228.972,93.352 228.78,93.704 228.236,93.8 C227.98,93.864 227.756,93.864 227.532,93.864 C227.34,93.864 227.148,93.96 227.148,94.056 C227.148,94.248 227.276,94.312 227.596,94.312 C228.46,94.312 229.868,94.216 230.38,94.216 C230.508,94.216 232.3,94.312 233.964,94.312 C234.284,94.312 234.412,94.216 234.412,94.056 C234.412,93.96 234.284,93.864 233.996,93.864 C233.74,93.864 233.388,93.832 233.068,93.8 C232.012,93.672 231.916,93.032 231.82,92.264 C231.66,91.112 231.66,88.776 231.66,86.216 L231.66,85.768 C231.66,85.64 231.692,85.608 231.82,85.608 L235.116,85.64 C235.308,85.64 235.372,85.704 235.5,85.832 C236.044,86.504 237.324,88.232 238.572,89.768 C240.236,91.912 241.196,93.352 242.54,93.928 C243.244,94.216 243.948,94.312 245.452,94.312 L247.692,94.312 C248.14,94.312 248.268,94.248 248.268,94.088 C248.268,93.96 248.172,93.864 247.916,93.864 C247.82,93.864 247.148,93.832 246.924,93.8 C246.028,93.672 245.068,93.416 243.532,91.848 C241.9,90.152 239.98,87.784 237.644,84.904 C240.172,82.856 241.036,80.616 241.036,78.856 C241.036,76.68 239.724,75.4 239.116,74.952 C237.612,73.896 235.66,73.736 233.868,73.736 C232.972,73.736 230.796,73.832 230.508,73.832 C230.444,73.832 228.492,73.736 227.116,73.736 C226.828,73.736 226.732,73.832 226.732,73.96 C226.732,74.088 226.86,74.152 227.084,74.152 C227.34,74.152 227.66,74.184 227.852,74.216 C228.844,74.408 229.068,74.888 229.132,75.752 C229.196,76.616 229.196,77.384 229.196,81.608 L229.196,86.408 Z M231.66,75.176 C231.66,75.016 231.756,74.92 231.852,74.888 C232.236,74.792 232.908,74.728 233.708,74.728 C236.556,74.728 238.412,76.648 238.412,80.136 C238.412,82.184 237.772,83.592 236.812,84.2 C236.14,84.648 235.34,84.68 234.668,84.68 C233.516,84.68 232.236,84.488 231.82,84.264 C231.692,84.2 231.66,84.04 231.66,83.88 L231.66,75.176 Z" id="Shape"></path>
            <path d="M260.108,94.664 C261.9,94.664 264.044,94.504 265.164,94.024 C265.612,93.832 265.708,93.736 265.9,93.224 C266.124,92.52 266.54,89.928 266.54,89.672 C266.54,89.448 266.54,89.224 266.38,89.224 C266.188,89.224 266.092,89.384 266.028,89.704 C265.868,90.6 265.548,91.4 264.972,92.008 C263.852,93.096 262.252,93.32 260.076,93.32 C254.444,93.32 250.124,88.648 250.124,83.336 C250.124,80.52 250.604,78.216 252.684,76.328 C253.644,75.464 255.276,74.472 258.828,74.472 C261.292,74.472 263.532,75.272 264.492,76.104 C265.292,76.712 265.74,77.96 265.74,78.888 C265.74,79.304 265.772,79.496 265.996,79.496 C266.156,79.496 266.22,79.336 266.252,78.888 C266.284,78.504 266.284,76.84 266.316,75.944 C266.38,74.92 266.476,74.632 266.476,74.376 C266.476,74.216 266.444,74.056 266.188,74.056 C265.42,74.024 264.396,73.864 263.372,73.704 C261.804,73.48 260.62,73.352 259.148,73.352 C254.86,73.352 252.268,74.536 250.54,76.2 C248.012,78.632 247.308,81.8 247.308,83.592 C247.308,86.248 248.012,89.384 250.732,91.752 C253.004,93.704 255.884,94.664 260.108,94.664 Z" id="Path"></path>
            <path d="M273.196,86.408 C273.196,88.808 273.196,91.08 273.036,92.232 C272.94,93 272.844,93.64 272.3,93.768 C272.044,93.832 271.692,93.864 271.532,93.864 C271.244,93.864 271.116,93.96 271.116,94.088 C271.116,94.248 271.34,94.312 271.628,94.312 C272.524,94.312 274.412,94.216 274.508,94.216 C274.668,94.216 276.524,94.312 278.156,94.312 C278.476,94.312 278.604,94.216 278.604,94.088 C278.604,93.96 278.54,93.896 278.252,93.864 C278.124,93.864 277.452,93.832 277.036,93.736 C276.204,93.544 276.076,93.192 275.948,92.264 C275.788,91.112 275.82,88.872 275.82,86.408 L275.82,81.608 C275.82,77.384 275.788,76.648 275.852,75.784 C275.916,74.856 276.012,74.376 276.94,74.248 C277.164,74.216 277.324,74.216 277.516,74.184 C277.772,74.152 277.868,74.088 277.868,73.96 C277.868,73.8 277.708,73.736 277.388,73.736 C276.492,73.736 274.636,73.832 274.508,73.832 C274.412,73.832 272.588,73.736 271.596,73.736 C271.244,73.736 271.116,73.8 271.116,73.96 C271.116,74.088 271.244,74.152 271.468,74.184 C271.66,74.216 271.884,74.216 272.204,74.28 C272.876,74.408 273.068,74.888 273.132,75.752 C273.196,76.616 273.196,77.384 273.196,81.608 L273.196,86.408 Z" id="Path"></path>
            <path d="M292.972,86.504 C293.1,86.504 293.164,86.568 293.228,86.664 L295.756,93.096 C295.948,93.576 295.756,93.736 295.628,93.8 C295.5,93.832 295.404,93.928 295.404,94.024 C295.404,94.184 295.596,94.216 296.204,94.248 C298.348,94.312 300.748,94.312 301.068,94.312 C301.42,94.312 301.548,94.248 301.548,94.088 C301.548,93.928 301.388,93.864 301.164,93.864 C300.94,93.864 300.492,93.864 300.076,93.704 C299.628,93.544 298.7,93.128 297.644,90.6 C295.948,86.6 291.596,75.432 291.148,74.376 C290.796,73.48 290.668,73.352 290.508,73.352 C290.284,73.352 290.188,73.512 289.836,74.44 L283.436,91.304 C282.892,92.648 282.348,93.704 280.972,93.832 C280.78,93.864 280.492,93.864 280.332,93.864 C280.076,93.864 279.948,93.96 279.948,94.088 C279.948,94.248 280.108,94.312 280.46,94.312 C281.804,94.312 283.212,94.216 283.532,94.216 C283.884,94.216 285.356,94.312 286.06,94.312 C286.284,94.312 286.54,94.248 286.54,94.088 C286.54,93.96 286.444,93.864 286.156,93.864 C286.06,93.864 286.028,93.864 285.932,93.864 C285.228,93.864 284.876,93.608 284.876,93.032 C284.876,92.52 285.1,91.656 285.42,90.76 L286.828,86.76 C286.892,86.6 286.988,86.504 287.148,86.504 L292.972,86.504 Z M287.468,85.384 C287.404,85.384 287.34,85.32 287.404,85.192 L289.804,78.12 C289.964,77.672 289.996,77.672 290.156,78.12 L292.684,85.192 C292.716,85.288 292.716,85.384 292.588,85.384 L287.468,85.384 Z" id="Shape"></path>
            <path d="M308.076,81.608 C308.076,77.384 308.044,76.68 308.108,75.816 C308.172,74.888 308.364,74.376 309.26,74.248 C309.58,74.216 309.9,74.184 310.124,74.184 C310.316,74.184 310.476,74.088 310.476,73.96 C310.476,73.832 310.38,73.736 310.06,73.736 C309.164,73.736 307.212,73.832 306.764,73.832 C306.7,73.832 304.78,73.736 303.436,73.736 C303.116,73.736 302.956,73.8 302.956,73.96 C302.956,74.088 303.084,74.184 303.308,74.184 C303.564,74.184 303.916,74.184 304.108,74.216 C305.196,74.344 305.324,74.92 305.388,75.816 C305.452,76.68 305.452,77.384 305.452,81.608 L305.452,86.408 C305.452,88.872 305.516,91.08 305.324,92.296 C305.228,93.064 305.036,93.704 304.492,93.8 C304.236,93.864 303.98,93.864 303.724,93.864 C303.468,93.864 303.372,93.96 303.372,94.056 C303.372,94.248 303.564,94.312 303.884,94.312 C305.004,94.312 305.644,94.216 306.7,94.216 C309.9,94.216 312.3,94.376 314.476,94.376 C316.012,94.376 315.98,94.216 316.172,93.576 C316.364,92.84 316.556,91.016 316.556,90.696 C316.556,90.376 316.492,90.28 316.364,90.28 C316.204,90.28 316.14,90.408 316.108,90.664 C316.044,91.144 315.82,91.784 315.5,92.264 C314.796,93.16 313.516,93.16 312.108,93.16 C309.9,93.16 309.26,92.968 308.748,92.52 C308.204,92.008 308.076,90.152 308.076,86.472 L308.076,81.608 Z" id="Path"></path>
        </g>
    </g>
</svg>