<?xml version="1.0" encoding="UTF-8"?>
<svg width="436px" height="26px" viewBox="0 0 436 26" version="1.1" xmlns="http://www.w3.org/2000/svg" xmlns:xlink="http://www.w3.org/1999/xlink">
    <title>PLOTTED DEVELOPMENT</title>
    <g id="Website" stroke="none" stroke-width="1" fill="none" fill-rule="evenodd">
        <g id="PLOTTED-DEVELOPMENT" transform="translate(0.584000, 0.456000)" fill="#18181B" fill-rule="nonzero">
            <path d="M2.784,15.36 C2.784,18.432 2.784,20.96 2.624,22.304 C2.496,23.232 2.336,23.936 1.696,24.064 C1.408,24.128 1.024,24.192 0.736,24.192 C0.544,24.192 0.48,24.288 0.48,24.384 C0.48,24.576 0.64,24.64 0.992,24.64 C1.952,24.64 3.968,24.544 4.064,24.544 C4.224,24.544 6.24,24.64 8,24.64 C8.352,24.64 8.512,24.544 8.512,24.384 C8.512,24.288 8.448,24.192 8.256,24.192 C7.968,24.192 7.264,24.128 6.816,24.064 C5.856,23.936 5.664,23.232 5.568,22.304 C5.408,20.96 5.408,18.432 5.408,15.36 L5.408,2.208 C5.408,1.888 5.472,1.664 5.664,1.6 C5.952,1.472 6.496,1.408 7.04,1.408 C7.776,1.408 9.728,1.28 11.424,3.008 C13.12,4.736 13.216,6.88 13.216,7.68 C13.216,11.04 10.784,13.152 7.68,13.152 C7.008,13.152 6.816,13.184 6.816,13.44 C6.816,13.6 7.008,13.664 7.168,13.664 C7.328,13.696 7.68,13.696 7.84,13.696 C12.384,13.696 15.712,10.624 15.712,6.464 C15.712,4.384 14.816,2.944 14.112,2.272 C13.6,1.792 12.16,0.448 8.16,0.448 C6.688,0.448 4.832,0.544 4.128,0.544 C3.872,0.544 1.952,0.448 0.512,0.448 C0.16,0.448 4.54747351e-13,0.512 4.54747351e-13,0.704 C4.54747351e-13,0.832 0.128,0.896 0.256,0.896 C0.544,0.896 1.088,0.928 1.344,0.992 C2.4,1.216 2.656,1.728 2.72,2.816 C2.784,3.84 2.784,4.736 2.784,9.728 L2.784,15.36 Z" id="Path"></path>
            <path d="M26.016,9.728 C26.016,4.736 26.016,3.84 26.08,2.816 C26.144,1.696 26.4,1.152 27.328,0.992 C27.712,0.928 28.16,0.896 28.384,0.896 C28.512,0.896 28.64,0.832 28.64,0.704 C28.64,0.512 28.48,0.448 28.128,0.448 C27.168,0.448 24.832,0.544 24.672,0.544 C24.512,0.544 22.496,0.448 21.056,0.448 C20.704,0.448 20.544,0.512 20.544,0.704 C20.544,0.832 20.672,0.896 20.8,0.896 C21.088,0.896 21.632,0.928 21.888,0.992 C22.944,1.216 23.2,1.728 23.264,2.816 C23.328,3.84 23.328,4.736 23.328,9.728 L23.328,15.36 C23.328,18.432 23.328,20.96 23.168,22.304 C23.04,23.232 22.88,23.936 22.24,24.064 C21.952,24.128 21.568,24.192 21.28,24.192 C21.088,24.192 21.024,24.288 21.024,24.384 C21.024,24.576 21.184,24.64 21.536,24.64 C22.72,24.64 23.68,24.544 24.672,24.544 C27.776,24.544 30.496,24.736 33.248,24.736 C34.944,24.736 35.04,24.608 35.264,23.872 C35.52,22.944 35.744,21.024 35.744,20.672 C35.744,20.32 35.712,20.192 35.552,20.192 C35.36,20.192 35.296,20.352 35.264,20.608 C35.168,21.216 34.848,22.016 34.432,22.528 C33.664,23.456 32.256,23.488 30.56,23.488 C28.064,23.488 27.232,23.264 26.72,22.752 C26.144,22.176 26.016,20.128 26.016,15.424 L26.016,9.728 Z" id="Path"></path>
            <path d="M51.04,25.088 C58.752,25.088 63.808,19.168 63.808,12 C63.808,4.544 58.432,0 51.232,0 C42.4,0 38.624,7.328 38.624,12.512 C38.624,18.272 42.272,25.088 51.04,25.088 Z M51.904,23.872 C46.144,23.872 41.664,19.072 41.664,11.616 C41.664,4.608 45.664,1.088 51.008,1.088 C56.064,1.088 60.736,5.216 60.736,12.896 C60.736,22.208 54.784,23.872 51.904,23.872 Z" id="Shape"></path>
            <path d="M78.368,1.824 C79.712,1.856 81.056,1.856 82.4,1.888 C85.472,1.952 86.24,2.688 86.336,3.648 C86.336,3.776 86.368,3.872 86.368,4 C86.4,4.448 86.464,4.544 86.624,4.544 C86.752,4.544 86.848,4.416 86.848,4.128 C86.848,3.776 86.944,1.568 86.944,0.608 C86.944,0.416 86.944,0.224 86.784,0.224 C86.656,0.224 86.368,0.32 85.888,0.384 C85.376,0.48 84.64,0.544 83.616,0.544 L71.616,0.544 C71.232,0.544 70.016,0.48 69.088,0.384 C68.224,0.32 67.904,0 67.68,0 C67.552,0 67.424,0.416 67.36,0.608 C67.296,0.864 66.656,3.616 66.656,3.936 C66.656,4.128 66.72,4.224 66.816,4.224 C66.944,4.224 67.04,4.16 67.136,3.904 C67.232,3.68 67.328,3.456 67.68,2.912 C68.192,2.144 68.96,1.92 70.944,1.888 C72.512,1.856 74.112,1.856 75.68,1.824 L75.68,15.36 C75.68,18.432 75.68,20.96 75.52,22.304 C75.392,23.232 75.232,23.936 74.592,24.064 C74.304,24.128 73.92,24.192 73.632,24.192 C73.44,24.192 73.376,24.288 73.376,24.384 C73.376,24.576 73.536,24.64 73.888,24.64 C74.848,24.64 76.864,24.544 77.024,24.544 C77.184,24.544 79.2,24.64 80.96,24.64 C81.312,24.64 81.472,24.544 81.472,24.384 C81.472,24.288 81.408,24.192 81.216,24.192 C80.928,24.192 80.224,24.128 79.776,24.064 C78.816,23.936 78.624,23.232 78.528,22.304 C78.368,20.96 78.368,18.432 78.368,15.36 L78.368,1.824 Z" id="Path"></path>
            <path d="M100.48,1.824 C101.824,1.856 103.168,1.856 104.512,1.888 C107.584,1.952 108.352,2.688 108.448,3.648 C108.448,3.776 108.48,3.872 108.48,4 C108.512,4.448 108.576,4.544 108.736,4.544 C108.864,4.544 108.96,4.416 108.96,4.128 C108.96,3.776 109.056,1.568 109.056,0.608 C109.056,0.416 109.056,0.224 108.896,0.224 C108.768,0.224 108.48,0.32 108,0.384 C107.488,0.48 106.752,0.544 105.728,0.544 L93.728,0.544 C93.344,0.544 92.128,0.48 91.2,0.384 C90.336,0.32 90.016,0 89.792,0 C89.664,0 89.536,0.416 89.472,0.608 C89.408,0.864 88.768,3.616 88.768,3.936 C88.768,4.128 88.832,4.224 88.928,4.224 C89.056,4.224 89.152,4.16 89.248,3.904 C89.344,3.68 89.44,3.456 89.792,2.912 C90.304,2.144 91.072,1.92 93.056,1.888 C94.624,1.856 96.224,1.856 97.792,1.824 L97.792,15.36 C97.792,18.432 97.792,20.96 97.632,22.304 C97.504,23.232 97.344,23.936 96.704,24.064 C96.416,24.128 96.032,24.192 95.744,24.192 C95.552,24.192 95.488,24.288 95.488,24.384 C95.488,24.576 95.648,24.64 96,24.64 C96.96,24.64 98.976,24.544 99.136,24.544 C99.296,24.544 101.312,24.64 103.072,24.64 C103.424,24.64 103.584,24.544 103.584,24.384 C103.584,24.288 103.52,24.192 103.328,24.192 C103.04,24.192 102.336,24.128 101.888,24.064 C100.928,23.936 100.736,23.232 100.64,22.304 C100.48,20.96 100.48,18.432 100.48,15.36 L100.48,1.824 Z" id="Path"></path>
            <path d="M115.776,15.36 C115.776,18.208 115.744,19.84 115.712,21.088 C115.648,23.488 115.232,23.936 114.56,24.096 C114.336,24.16 114.144,24.16 113.824,24.192 C113.632,24.224 113.472,24.288 113.472,24.384 C113.472,24.576 113.632,24.64 113.984,24.64 C114.816,24.672 115.584,24.544 116.352,24.544 C117.6,24.544 119.072,24.608 120.352,24.64 C121.6,24.672 122.656,24.736 125.024,24.736 C126.272,24.736 126.528,24.736 126.752,23.904 C126.912,23.232 127.168,21.056 127.168,20.8 C127.168,20.576 127.168,20.32 126.976,20.32 C126.816,20.32 126.752,20.448 126.688,20.8 C126.432,22.176 126.08,22.848 125.056,23.168 C124.192,23.424 123.136,23.456 122.176,23.456 C120.928,23.456 120.064,23.392 119.52,23.168 C118.72,22.848 118.528,22.144 118.464,20.832 C118.432,20.16 118.464,16.448 118.464,15.36 L118.464,12.544 C118.464,12.416 118.528,12.32 118.688,12.32 C119.232,12.32 122.4,12.384 123.264,12.48 C124.416,12.608 124.8,13.056 124.928,13.536 C125.024,13.824 125.056,14.144 125.056,14.432 C125.056,14.688 125.088,14.944 125.28,14.944 C125.408,14.944 125.472,14.784 125.504,14.464 C125.536,14.016 125.536,13.28 125.632,12.288 C125.728,11.232 125.888,10.688 125.888,10.496 C125.888,10.304 125.824,10.24 125.728,10.24 C125.6,10.24 125.504,10.368 125.344,10.56 C125.024,10.944 124.608,11.04 123.744,11.104 C123.008,11.168 119.072,11.168 118.656,11.168 C118.496,11.168 118.464,11.072 118.464,10.848 L118.464,2.016 C118.464,1.792 118.528,1.696 118.656,1.696 C119.008,1.696 122.496,1.728 123.04,1.792 C124.448,1.92 125.12,2.24 125.344,2.976 C125.44,3.232 125.504,3.616 125.504,4.032 C125.504,4.288 125.568,4.448 125.76,4.448 C125.888,4.448 125.984,4.224 126.016,3.904 C126.08,3.072 126.112,2.464 126.144,1.984 C126.208,1.088 126.4,0.704 126.4,0.48 C126.4,0.32 126.368,0.192 126.272,0.192 C126.176,0.192 126.112,0.224 125.92,0.32 C125.728,0.416 125.152,0.48 124.448,0.512 C123.712,0.544 117.344,0.544 117.12,0.544 C115.104,0.448 114.24,0.448 113.504,0.448 C113.152,0.448 112.992,0.512 112.992,0.704 C112.992,0.832 113.184,0.864 113.408,0.896 C113.696,0.928 114.112,0.928 114.336,0.992 C115.392,1.216 115.648,1.728 115.712,2.816 C115.776,3.84 115.776,4.736 115.776,9.728 L115.776,15.36 Z" id="Path"></path>
            <path d="M135.296,15.36 C135.296,18.432 135.296,20.96 135.136,22.304 C135.008,23.232 134.848,23.936 134.208,24.064 C133.92,24.128 133.664,24.16 133.312,24.192 C133.056,24.192 132.992,24.288 132.992,24.384 C132.992,24.576 133.152,24.64 133.504,24.64 C133.984,24.64 134.72,24.576 135.36,24.576 C136.032,24.544 136.576,24.544 136.64,24.544 C136.8,24.544 137.888,24.64 139.296,24.736 C140.672,24.832 142.368,24.928 143.744,24.928 C149.184,24.928 152.064,22.688 153.44,21.248 C155.232,19.36 156.896,16.256 156.896,12.224 C156.896,8.416 155.392,5.76 153.792,4.096 C149.984,0.16 144.128,0.448 140.96,0.448 C139.04,0.448 137.024,0.544 136.64,0.544 C136.48,0.544 134.464,0.448 133.024,0.448 C132.672,0.448 132.512,0.512 132.512,0.704 C132.512,0.832 132.64,0.896 132.864,0.896 C133.152,0.896 133.696,0.928 133.952,0.992 C135.008,1.216 135.168,1.728 135.232,2.816 C135.296,3.84 135.296,4.736 135.296,9.728 L135.296,15.36 Z M137.984,9.216 C137.984,6.752 137.984,3.488 138.016,2.4 C138.016,2.048 138.112,1.888 138.4,1.76 C138.656,1.632 139.84,1.536 140.48,1.536 C144.288,1.536 147.936,1.984 150.944,5.152 C152.256,6.528 154.016,9.152 154.016,13.216 C154.016,16.16 153.12,19.232 151.456,20.864 C149.568,22.752 146.816,23.84 143.84,23.84 C140.064,23.84 138.816,23.168 138.4,22.56 C138.144,22.208 138.08,20.928 138.048,20.128 C138.016,19.52 137.984,16.576 137.984,13.184 L137.984,9.216 Z" id="Shape"></path>
            <path d="M175.04,15.36 C175.04,18.432 175.04,20.96 174.88,22.304 C174.752,23.232 174.592,23.936 173.952,24.064 C173.664,24.128 173.408,24.16 173.056,24.192 C172.8,24.192 172.736,24.288 172.736,24.384 C172.736,24.576 172.896,24.64 173.248,24.64 C173.728,24.64 174.464,24.576 175.104,24.576 C175.776,24.544 176.32,24.544 176.384,24.544 C176.544,24.544 177.632,24.64 179.04,24.736 C180.416,24.832 182.112,24.928 183.488,24.928 C188.928,24.928 191.808,22.688 193.184,21.248 C194.976,19.36 196.64,16.256 196.64,12.224 C196.64,8.416 195.136,5.76 193.536,4.096 C189.728,0.16 183.872,0.448 180.704,0.448 C178.784,0.448 176.768,0.544 176.384,0.544 C176.224,0.544 174.208,0.448 172.768,0.448 C172.416,0.448 172.256,0.512 172.256,0.704 C172.256,0.832 172.384,0.896 172.608,0.896 C172.896,0.896 173.44,0.928 173.696,0.992 C174.752,1.216 174.912,1.728 174.976,2.816 C175.04,3.84 175.04,4.736 175.04,9.728 L175.04,15.36 Z M177.728,9.216 C177.728,6.752 177.728,3.488 177.76,2.4 C177.76,2.048 177.856,1.888 178.144,1.76 C178.4,1.632 179.584,1.536 180.224,1.536 C184.032,1.536 187.68,1.984 190.688,5.152 C192,6.528 193.76,9.152 193.76,13.216 C193.76,16.16 192.864,19.232 191.2,20.864 C189.312,22.752 186.56,23.84 183.584,23.84 C179.808,23.84 178.56,23.168 178.144,22.56 C177.888,22.208 177.824,20.928 177.792,20.128 C177.76,19.52 177.728,16.576 177.728,13.184 L177.728,9.216 Z" id="Shape"></path>
            <path d="M204.384,15.36 C204.384,18.208 204.352,19.84 204.32,21.088 C204.256,23.488 203.84,23.936 203.168,24.096 C202.944,24.16 202.752,24.16 202.432,24.192 C202.24,24.224 202.08,24.288 202.08,24.384 C202.08,24.576 202.24,24.64 202.592,24.64 C203.424,24.672 204.192,24.544 204.96,24.544 C206.208,24.544 207.68,24.608 208.96,24.64 C210.208,24.672 211.264,24.736 213.632,24.736 C214.88,24.736 215.136,24.736 215.36,23.904 C215.52,23.232 215.776,21.056 215.776,20.8 C215.776,20.576 215.776,20.32 215.584,20.32 C215.424,20.32 215.36,20.448 215.296,20.8 C215.04,22.176 214.688,22.848 213.664,23.168 C212.8,23.424 211.744,23.456 210.784,23.456 C209.536,23.456 208.672,23.392 208.128,23.168 C207.328,22.848 207.136,22.144 207.072,20.832 C207.04,20.16 207.072,16.448 207.072,15.36 L207.072,12.544 C207.072,12.416 207.136,12.32 207.296,12.32 C207.84,12.32 211.008,12.384 211.872,12.48 C213.024,12.608 213.408,13.056 213.536,13.536 C213.632,13.824 213.664,14.144 213.664,14.432 C213.664,14.688 213.696,14.944 213.888,14.944 C214.016,14.944 214.08,14.784 214.112,14.464 C214.144,14.016 214.144,13.28 214.24,12.288 C214.336,11.232 214.496,10.688 214.496,10.496 C214.496,10.304 214.432,10.24 214.336,10.24 C214.208,10.24 214.112,10.368 213.952,10.56 C213.632,10.944 213.216,11.04 212.352,11.104 C211.616,11.168 207.68,11.168 207.264,11.168 C207.104,11.168 207.072,11.072 207.072,10.848 L207.072,2.016 C207.072,1.792 207.136,1.696 207.264,1.696 C207.616,1.696 211.104,1.728 211.648,1.792 C213.056,1.92 213.728,2.24 213.952,2.976 C214.048,3.232 214.112,3.616 214.112,4.032 C214.112,4.288 214.176,4.448 214.368,4.448 C214.496,4.448 214.592,4.224 214.624,3.904 C214.688,3.072 214.72,2.464 214.752,1.984 C214.816,1.088 215.008,0.704 215.008,0.48 C215.008,0.32 214.976,0.192 214.88,0.192 C214.784,0.192 214.72,0.224 214.528,0.32 C214.336,0.416 213.76,0.48 213.056,0.512 C212.32,0.544 205.952,0.544 205.728,0.544 C203.712,0.448 202.848,0.448 202.112,0.448 C201.76,0.448 201.6,0.512 201.6,0.704 C201.6,0.832 201.792,0.864 202.016,0.896 C202.304,0.928 202.72,0.928 202.944,0.992 C204,1.216 204.256,1.728 204.32,2.816 C204.384,3.84 204.384,4.736 204.384,9.728 L204.384,15.36 Z" id="Path"></path>
            <path d="M228.992,23.104 C229.6,24.64 229.76,25.088 230.144,25.088 C230.464,25.088 230.592,24.576 231.488,22.656 C232.224,21.088 233.664,17.632 235.616,12.96 C237.248,9.024 238.848,5.184 239.2,4.288 C240.064,2.112 240.544,1.568 240.96,1.28 C241.568,0.896 242.272,0.896 242.496,0.896 C242.752,0.896 242.88,0.832 242.88,0.672 C242.88,0.512 242.688,0.448 242.336,0.448 C241.408,0.448 240.032,0.544 239.84,0.544 C239.456,0.544 237.984,0.448 236.704,0.448 C236.192,0.448 236,0.512 236,0.704 C236,0.864 236.16,0.896 236.352,0.896 C236.704,0.896 237.184,0.896 237.568,1.024 C237.888,1.184 237.984,1.504 237.984,1.76 C237.984,2.048 237.856,2.496 237.696,2.976 C236.992,5.28 232.704,16.448 230.848,20.736 L224.32,3.744 C223.968,2.848 223.68,1.984 223.68,1.696 C223.68,1.472 223.744,1.216 224.096,1.056 C224.384,0.928 224.96,0.896 225.312,0.896 C225.536,0.896 225.632,0.832 225.632,0.672 C225.632,0.512 225.344,0.448 224.768,0.448 C223.552,0.448 222.176,0.544 221.856,0.544 C221.472,0.544 219.744,0.448 218.208,0.448 C217.696,0.448 217.376,0.48 217.376,0.672 C217.376,0.8 217.44,0.896 217.632,0.896 C217.824,0.896 218.368,0.896 218.848,1.024 C219.968,1.344 220.448,1.696 221.152,3.488 L228.992,23.104 Z" id="Path"></path>
            <path d="M247.616,15.36 C247.616,18.208 247.584,19.84 247.552,21.088 C247.488,23.488 247.072,23.936 246.4,24.096 C246.176,24.16 245.984,24.16 245.664,24.192 C245.472,24.224 245.312,24.288 245.312,24.384 C245.312,24.576 245.472,24.64 245.824,24.64 C246.656,24.672 247.424,24.544 248.192,24.544 C249.44,24.544 250.912,24.608 252.192,24.64 C253.44,24.672 254.496,24.736 256.864,24.736 C258.112,24.736 258.368,24.736 258.592,23.904 C258.752,23.232 259.008,21.056 259.008,20.8 C259.008,20.576 259.008,20.32 258.816,20.32 C258.656,20.32 258.592,20.448 258.528,20.8 C258.272,22.176 257.92,22.848 256.896,23.168 C256.032,23.424 254.976,23.456 254.016,23.456 C252.768,23.456 251.904,23.392 251.36,23.168 C250.56,22.848 250.368,22.144 250.304,20.832 C250.272,20.16 250.304,16.448 250.304,15.36 L250.304,12.544 C250.304,12.416 250.368,12.32 250.528,12.32 C251.072,12.32 254.24,12.384 255.104,12.48 C256.256,12.608 256.64,13.056 256.768,13.536 C256.864,13.824 256.896,14.144 256.896,14.432 C256.896,14.688 256.928,14.944 257.12,14.944 C257.248,14.944 257.312,14.784 257.344,14.464 C257.376,14.016 257.376,13.28 257.472,12.288 C257.568,11.232 257.728,10.688 257.728,10.496 C257.728,10.304 257.664,10.24 257.568,10.24 C257.44,10.24 257.344,10.368 257.184,10.56 C256.864,10.944 256.448,11.04 255.584,11.104 C254.848,11.168 250.912,11.168 250.496,11.168 C250.336,11.168 250.304,11.072 250.304,10.848 L250.304,2.016 C250.304,1.792 250.368,1.696 250.496,1.696 C250.848,1.696 254.336,1.728 254.88,1.792 C256.288,1.92 256.96,2.24 257.184,2.976 C257.28,3.232 257.344,3.616 257.344,4.032 C257.344,4.288 257.408,4.448 257.6,4.448 C257.728,4.448 257.824,4.224 257.856,3.904 C257.92,3.072 257.952,2.464 257.984,1.984 C258.048,1.088 258.24,0.704 258.24,0.48 C258.24,0.32 258.208,0.192 258.112,0.192 C258.016,0.192 257.952,0.224 257.76,0.32 C257.568,0.416 256.992,0.48 256.288,0.512 C255.552,0.544 249.184,0.544 248.96,0.544 C246.944,0.448 246.08,0.448 245.344,0.448 C244.992,0.448 244.832,0.512 244.832,0.704 C244.832,0.832 245.024,0.864 245.248,0.896 C245.536,0.928 245.952,0.928 246.176,0.992 C247.232,1.216 247.488,1.728 247.552,2.816 C247.616,3.84 247.616,4.736 247.616,9.728 L247.616,15.36 Z" id="Path"></path>
            <path d="M269.824,9.728 C269.824,4.736 269.824,3.84 269.888,2.816 C269.952,1.696 270.208,1.152 271.136,0.992 C271.52,0.928 271.968,0.896 272.192,0.896 C272.32,0.896 272.448,0.832 272.448,0.704 C272.448,0.512 272.288,0.448 271.936,0.448 C270.976,0.448 268.64,0.544 268.48,0.544 C268.32,0.544 266.304,0.448 264.864,0.448 C264.512,0.448 264.352,0.512 264.352,0.704 C264.352,0.832 264.48,0.896 264.608,0.896 C264.896,0.896 265.44,0.928 265.696,0.992 C266.752,1.216 267.008,1.728 267.072,2.816 C267.136,3.84 267.136,4.736 267.136,9.728 L267.136,15.36 C267.136,18.432 267.136,20.96 266.976,22.304 C266.848,23.232 266.688,23.936 266.048,24.064 C265.76,24.128 265.376,24.192 265.088,24.192 C264.896,24.192 264.832,24.288 264.832,24.384 C264.832,24.576 264.992,24.64 265.344,24.64 C266.528,24.64 267.488,24.544 268.48,24.544 C271.584,24.544 274.304,24.736 277.056,24.736 C278.752,24.736 278.848,24.608 279.072,23.872 C279.328,22.944 279.552,21.024 279.552,20.672 C279.552,20.32 279.52,20.192 279.36,20.192 C279.168,20.192 279.104,20.352 279.072,20.608 C278.976,21.216 278.656,22.016 278.24,22.528 C277.472,23.456 276.064,23.488 274.368,23.488 C271.872,23.488 271.04,23.264 270.528,22.752 C269.952,22.176 269.824,20.128 269.824,15.424 L269.824,9.728 Z" id="Path"></path>
            <path d="M294.848,25.088 C302.56,25.088 307.616,19.168 307.616,12 C307.616,4.544 302.24,0 295.04,0 C286.208,0 282.432,7.328 282.432,12.512 C282.432,18.272 286.08,25.088 294.848,25.088 Z M295.712,23.872 C289.952,23.872 285.472,19.072 285.472,11.616 C285.472,4.608 289.472,1.088 294.816,1.088 C299.872,1.088 304.544,5.216 304.544,12.896 C304.544,22.208 298.592,23.872 295.712,23.872 Z" id="Shape"></path>
            <path d="M315.36,15.36 C315.36,18.432 315.36,20.96 315.2,22.304 C315.072,23.232 314.912,23.936 314.272,24.064 C313.984,24.128 313.6,24.192 313.312,24.192 C313.12,24.192 313.056,24.288 313.056,24.384 C313.056,24.576 313.216,24.64 313.568,24.64 C314.528,24.64 316.544,24.544 316.64,24.544 C316.8,24.544 318.816,24.64 320.576,24.64 C320.928,24.64 321.088,24.544 321.088,24.384 C321.088,24.288 321.024,24.192 320.832,24.192 C320.544,24.192 319.84,24.128 319.392,24.064 C318.432,23.936 318.24,23.232 318.144,22.304 C317.984,20.96 317.984,18.432 317.984,15.36 L317.984,2.208 C317.984,1.888 318.048,1.664 318.24,1.6 C318.528,1.472 319.072,1.408 319.616,1.408 C320.352,1.408 322.304,1.28 324,3.008 C325.696,4.736 325.792,6.88 325.792,7.68 C325.792,11.04 323.36,13.152 320.256,13.152 C319.584,13.152 319.392,13.184 319.392,13.44 C319.392,13.6 319.584,13.664 319.744,13.664 C319.904,13.696 320.256,13.696 320.416,13.696 C324.96,13.696 328.288,10.624 328.288,6.464 C328.288,4.384 327.392,2.944 326.688,2.272 C326.176,1.792 324.736,0.448 320.736,0.448 C319.264,0.448 317.408,0.544 316.704,0.544 C316.448,0.544 314.528,0.448 313.088,0.448 C312.736,0.448 312.576,0.512 312.576,0.704 C312.576,0.832 312.704,0.896 312.832,0.896 C313.12,0.896 313.664,0.928 313.92,0.992 C314.976,1.216 315.232,1.728 315.296,2.816 C315.36,3.84 315.36,4.736 315.36,9.728 L315.36,15.36 Z" id="Path"></path>
            <path d="M357.568,0.864 C357.504,0.256 357.408,0 357.184,0 C356.96,0 356.832,0.224 356.704,0.512 L347.296,20.608 L337.504,0.48 C337.344,0.128 337.216,0 337.024,0 C336.832,0 336.704,0.288 336.672,0.64 L334.368,21.44 C334.208,22.752 334.144,23.904 333.088,24.096 C332.608,24.192 332.384,24.192 332.128,24.192 C331.968,24.192 331.808,24.256 331.808,24.384 C331.808,24.608 332.032,24.64 332.352,24.64 C333.216,24.64 334.752,24.544 335.04,24.544 C335.296,24.544 336.928,24.64 338.112,24.64 C338.432,24.64 338.592,24.576 338.592,24.352 C338.592,24.256 338.464,24.192 338.272,24.192 C338.08,24.192 337.664,24.192 337.12,24.064 C336.64,23.968 336.256,23.712 336.256,22.912 C336.256,22.368 336.288,21.92 336.32,21.408 L337.632,6.336 C337.984,7.2 341.664,15.104 341.952,15.68 C342.112,16 344.864,21.536 345.696,23.104 C346.304,24.256 346.464,24.576 346.688,24.576 C346.976,24.576 347.072,24.288 347.744,22.88 L355.68,6.048 L357.216,22.752 C357.28,23.328 357.312,23.808 357.088,23.904 C356.928,23.968 356.864,24 356.864,24.128 C356.864,24.288 357.024,24.384 357.76,24.448 C358.944,24.544 362.592,24.64 363.296,24.64 C363.68,24.64 363.776,24.576 363.776,24.384 C363.776,24.224 363.584,24.192 363.424,24.192 C363.104,24.192 362.368,24.192 361.44,23.904 C360.064,23.456 359.84,21.664 359.712,20.512 L357.568,0.864 Z" id="Path"></path>
            <path d="M369.504,15.36 C369.504,18.208 369.472,19.84 369.44,21.088 C369.376,23.488 368.96,23.936 368.288,24.096 C368.064,24.16 367.872,24.16 367.552,24.192 C367.36,24.224 367.2,24.288 367.2,24.384 C367.2,24.576 367.36,24.64 367.712,24.64 C368.544,24.672 369.312,24.544 370.08,24.544 C371.328,24.544 372.8,24.608 374.08,24.64 C375.328,24.672 376.384,24.736 378.752,24.736 C380,24.736 380.256,24.736 380.48,23.904 C380.64,23.232 380.896,21.056 380.896,20.8 C380.896,20.576 380.896,20.32 380.704,20.32 C380.544,20.32 380.48,20.448 380.416,20.8 C380.16,22.176 379.808,22.848 378.784,23.168 C377.92,23.424 376.864,23.456 375.904,23.456 C374.656,23.456 373.792,23.392 373.248,23.168 C372.448,22.848 372.256,22.144 372.192,20.832 C372.16,20.16 372.192,16.448 372.192,15.36 L372.192,12.544 C372.192,12.416 372.256,12.32 372.416,12.32 C372.96,12.32 376.128,12.384 376.992,12.48 C378.144,12.608 378.528,13.056 378.656,13.536 C378.752,13.824 378.784,14.144 378.784,14.432 C378.784,14.688 378.816,14.944 379.008,14.944 C379.136,14.944 379.2,14.784 379.232,14.464 C379.264,14.016 379.264,13.28 379.36,12.288 C379.456,11.232 379.616,10.688 379.616,10.496 C379.616,10.304 379.552,10.24 379.456,10.24 C379.328,10.24 379.232,10.368 379.072,10.56 C378.752,10.944 378.336,11.04 377.472,11.104 C376.736,11.168 372.8,11.168 372.384,11.168 C372.224,11.168 372.192,11.072 372.192,10.848 L372.192,2.016 C372.192,1.792 372.256,1.696 372.384,1.696 C372.736,1.696 376.224,1.728 376.768,1.792 C378.176,1.92 378.848,2.24 379.072,2.976 C379.168,3.232 379.232,3.616 379.232,4.032 C379.232,4.288 379.296,4.448 379.488,4.448 C379.616,4.448 379.712,4.224 379.744,3.904 C379.808,3.072 379.84,2.464 379.872,1.984 C379.936,1.088 380.128,0.704 380.128,0.48 C380.128,0.32 380.096,0.192 380,0.192 C379.904,0.192 379.84,0.224 379.648,0.32 C379.456,0.416 378.88,0.48 378.176,0.512 C377.44,0.544 371.072,0.544 370.848,0.544 C368.832,0.448 367.968,0.448 367.232,0.448 C366.88,0.448 366.72,0.512 366.72,0.704 C366.72,0.832 366.912,0.864 367.136,0.896 C367.424,0.928 367.84,0.928 368.064,0.992 C369.12,1.216 369.376,1.728 369.44,2.816 C369.504,3.84 369.504,4.736 369.504,9.728 L369.504,15.36 Z" id="Path"></path>
            <path d="M387.968,19.936 C387.968,22.848 387.808,23.776 387.008,24 C386.528,24.16 385.952,24.192 385.696,24.192 C385.536,24.192 385.44,24.256 385.44,24.384 C385.44,24.608 385.632,24.64 385.952,24.64 C387.392,24.64 388.736,24.544 389.024,24.544 C389.312,24.544 390.592,24.64 392.416,24.64 C392.8,24.64 392.992,24.576 392.992,24.384 C392.992,24.256 392.896,24.192 392.736,24.192 C392.448,24.192 391.744,24.16 391.136,24 C390.272,23.744 389.952,22.912 389.888,20.288 L389.472,4.96 C390.496,6.112 394.112,10.144 397.824,14.144 C401.216,17.792 405.824,22.496 406.176,22.816 C407.872,24.512 408.256,24.864 408.512,24.864 C408.736,24.864 408.8,24.704 408.8,22.592 L408.864,3.904 C408.864,1.696 409.088,1.216 409.984,1.024 C410.368,0.96 410.56,0.928 410.816,0.896 C411.04,0.864 411.168,0.8 411.168,0.672 C411.168,0.48 410.944,0.448 410.592,0.448 C409.28,0.448 408.224,0.544 407.872,0.544 C407.52,0.544 405.984,0.448 404.544,0.448 C404.16,0.448 403.904,0.48 403.904,0.672 C403.904,0.8 404,0.896 404.352,0.896 C404.64,0.896 405.152,0.928 405.728,1.056 C406.72,1.312 406.944,2.016 406.976,4.096 L407.328,20.352 C406.304,19.296 402.816,15.392 399.648,12 C394.72,6.72 389.952,1.568 389.472,1.024 C389.152,0.704 388.608,0 388.352,0 C388.096,0 388,0.352 388,1.6 C388.032,7.808 387.968,3.648 387.968,15.2 L387.968,19.936 Z" id="Path"></path>
            <path d="M426.144,1.824 C427.488,1.856 428.832,1.856 430.176,1.888 C433.248,1.952 434.016,2.688 434.112,3.648 C434.112,3.776 434.144,3.872 434.144,4 C434.176,4.448 434.24,4.544 434.4,4.544 C434.528,4.544 434.624,4.416 434.624,4.128 C434.624,3.776 434.72,1.568 434.72,0.608 C434.72,0.416 434.72,0.224 434.56,0.224 C434.432,0.224 434.144,0.32 433.664,0.384 C433.152,0.48 432.416,0.544 431.392,0.544 L419.392,0.544 C419.008,0.544 417.792,0.48 416.864,0.384 C416,0.32 415.68,0 415.456,0 C415.328,0 415.2,0.416 415.136,0.608 C415.072,0.864 414.432,3.616 414.432,3.936 C414.432,4.128 414.496,4.224 414.592,4.224 C414.72,4.224 414.816,4.16 414.912,3.904 C415.008,3.68 415.104,3.456 415.456,2.912 C415.968,2.144 416.736,1.92 418.72,1.888 C420.288,1.856 421.888,1.856 423.456,1.824 L423.456,15.36 C423.456,18.432 423.456,20.96 423.296,22.304 C423.168,23.232 423.008,23.936 422.368,24.064 C422.08,24.128 421.696,24.192 421.408,24.192 C421.216,24.192 421.152,24.288 421.152,24.384 C421.152,24.576 421.312,24.64 421.664,24.64 C422.624,24.64 424.64,24.544 424.8,24.544 C424.96,24.544 426.976,24.64 428.736,24.64 C429.088,24.64 429.248,24.544 429.248,24.384 C429.248,24.288 429.184,24.192 428.992,24.192 C428.704,24.192 428,24.128 427.552,24.064 C426.592,23.936 426.4,23.232 426.304,22.304 C426.144,20.96 426.144,18.432 426.144,15.36 L426.144,1.824 Z" id="Path"></path>
        </g>
    </g>
</svg>