<?xml version="1.0" encoding="UTF-8"?>
<svg width="146px" height="72px" viewBox="0 0 146 72" version="1.1" xmlns="http://www.w3.org/2000/svg" xmlns:xlink="http://www.w3.org/1999/xlink">
    <title>Primary Logo Unit</title>
    <g id="Symbols" stroke="none" stroke-width="1" fill="#000000" fill-rule="evenodd">
        <g id="Panels/Footer" transform="translate(-76.000000, -833.000000)" fill="#71717A">
            <g id="Primary-Logo-Unit" transform="translate(76.000000, 833.000000)">
                <path d="M85.4294962,70.0319782 C84.3147934,71.2594871 82.7087903,71.9734312 81.0040818,71.9734312 C79.3951101,71.9734312 77.9033974,71.3552239 76.7909211,70.2442319 C75.2554218,68.7079904 75.2294467,67.1954976 75.2294467,63.4061021 C75.2294467,59.5966686 75.2554218,58.105698 76.7909211,56.5679723 C77.9033974,55.4540117 79.3951101,54.8395151 81.0040818,54.8395151 C83.9392677,54.8395151 86.2584728,56.8054589 86.7542261,59.7606828 L85.474767,59.7606828 C84.9804981,57.4199555 83.2772739,55.9764822 81.0040818,55.9764822 C79.7951266,55.9764822 78.6618702,56.4269646 77.8113713,57.2767214 C76.6031582,58.4834502 76.5081636,59.8118908 76.5081636,63.4061021 C76.5081636,67.0040241 76.6031582,68.328754 77.8113713,69.5369671 C78.6618702,70.3859817 79.7951266,70.8364641 81.0040818,70.8364641 C82.330296,70.8364641 83.6320195,70.2657541 84.506267,69.2022594 C85.2395069,68.2842253 85.525233,67.3120145 85.525233,65.8677991 L85.525233,64.3515956 L81.0040818,64.3515956 L81.0040818,63.2153707 L86.8024656,63.2153707 L86.8024656,65.9635359 C86.8024656,67.7342954 86.4469778,68.9669993 85.4294962,70.0319782" id="Fill-1"></path>
                <path d="M96.3615981,56.1174899 L91.3899645,56.1174899 L91.3899645,62.9326132 L96.3615981,62.9326132 C98.5390534,62.9326132 100.076779,61.8676342 100.076779,59.5231962 C100.076779,57.1817267 98.5390534,56.1174899 96.3615981,56.1174899 L96.3615981,56.1174899 Z M96.0283747,64.0695803 L91.3899645,64.0695803 L91.3899645,71.8272285 L90.1127319,71.8272285 L90.1127319,54.9834914 L96.5270966,54.9834914 C99.2708089,54.9834914 101.356238,56.5679723 101.356238,59.501674 C101.356238,62.0316484 99.8378082,63.6428465 97.4748165,64.0413787 L101.541775,71.8272285 L100.052288,71.8272285 L96.0283747,64.0695803 Z" id="Fill-3"></path>
                <path d="M112.78157,57.2763503 C111.931071,56.4228828 110.794104,55.9761112 109.588117,55.9761112 C108.380646,55.9761112 107.245906,56.4228828 106.390954,57.2763503 C105.186452,58.4838212 105.092199,59.8085512 105.092199,63.4064732 C105.092199,67.0014266 105.186452,68.3254144 106.390954,69.5336274 C107.245906,70.3856106 108.380646,70.836093 109.588117,70.836093 C110.794104,70.836093 111.931071,70.3856106 112.78157,69.5336274 C113.989041,68.3254144 114.084778,67.0014266 114.084778,63.4064732 C114.084778,59.8085512 113.989041,58.4838212 112.78157,57.2763503 M113.800536,70.244603 C112.688802,71.355595 111.197089,71.9738023 109.588117,71.9738023 C107.977661,71.9738023 106.488175,71.355595 105.374957,70.244603 C103.837973,68.7039086 103.813482,67.1906737 103.813482,63.4064732 C103.813482,59.5970397 103.837973,58.105327 105.374957,56.5683434 C106.488175,55.4543828 107.977661,54.8398862 109.588117,54.8398862 C111.197089,54.8398862 112.688802,55.4543828 113.800536,56.5683434 C115.338262,58.105327 115.360526,59.5970397 115.360526,63.4064732 C115.360526,67.1906737 115.338262,68.7039086 113.800536,70.244603" id="Fill-5"></path>
                <path d="M124.257294,71.9735796 C120.873852,71.9735796 118.484143,69.6521481 118.484143,66.3614744 L118.484143,54.9828977 L119.763602,54.9828977 L119.763602,66.1989445 C119.763602,68.9894121 121.538072,70.8366125 124.257294,70.8366125 C126.979484,70.8366125 128.753954,68.9894121 128.753954,66.1989445 L128.753954,54.9828977 L130.031929,54.9828977 L130.031929,66.3614744 C130.031929,69.6521481 127.64222,71.9735796 124.257294,71.9735796" id="Fill-7"></path>
                <path d="M139.851035,56.1174899 L135.095366,56.1174899 L135.095366,63.5471098 L139.851035,63.5471098 C142.193246,63.5471098 143.802218,62.3663561 143.802218,59.833413 C143.802218,57.3012122 142.193246,56.1174899 139.851035,56.1174899 M139.992785,64.6833347 L135.095366,64.6833347 L135.095366,71.8272285 L133.819617,71.8272285 L133.819617,54.9834914 L139.992785,54.9834914 C142.90348,54.9834914 145.082419,56.72976 145.082419,59.833413 C145.082419,62.9066381 142.90348,64.6833347 139.992785,64.6833347" id="Fill-9"></path>
                <polygon id="Fill-12" points="25.8128639 63.6150161 25.8128639 71.9997774 31.3270059 71.9997774"></polygon>
                <polygon id="Fill-14" points="49.8644677 60.9566504 46.1774882 68.0085182 44.076474 68.0085182 40.3412551 60.9566504 40.412501 71.9982931 49.8169704 71.9982931"></polygon>
                <path d="M71.9910943,0 L71.9910943,72 L65.0045353,72 C67.3615898,71.4931145 68.8399439,70.037767 68.8399439,67.0432094 C68.8399439,64.8672384 67.9746021,63.5306341 66.1437289,62.81669 C67.2309722,62.1205574 67.8016822,60.9843325 67.8016822,59.6247217 C67.8016822,56.1062093 65.5232951,55.1703637 62.3098046,55.1703637 L56.4943514,55.1703637 L56.4943514,72 L52.9053352,72 L52.7331574,55.1703637 L50.284819,55.1703637 L45.3117012,64.8672384 L40.2168714,55.1703637 L37.5926445,55.1703637 L37.3477365,72 L35.0173992,72 L29.5017729,63.5788736 L34.8333471,55.2571947 L31.2354251,55.2571947 L26.3855034,62.5999835 L25.8110827,63.4400924 L25.8110827,55.2571947 L22.6962975,55.2571947 L22.6962975,72 L0,72 L0,0 L71.9910943,0 Z" id="Fill-16"></path>
                <path d="M59.6138122,69.6681784 L62.6313763,69.6681784 C64.7583656,69.6681784 65.626676,69.1249278 65.626676,66.9704791 C65.626676,64.7425579 64.2655809,64.5703801 62.4087326,64.5703801 L59.6138122,64.5703801 L59.6138122,69.6681784 Z" id="Fill-18"></path>
                <path d="M64.7334295,59.7223881 C64.7334295,58.1386493 63.8435969,57.7185949 62.0617053,57.7185949 L59.6126247,57.7185949 L59.6126247,62.0222974 L62.0127237,62.0222974 C63.8435969,62.0222974 64.7334295,61.5540035 64.7334295,59.7223881" id="Fill-20"></path>
            </g>
        </g>
    </g>
</svg>