<?xml version="1.0" encoding="UTF-8"?>
<svg width="28px" height="24px" viewBox="0 0 28 24" version="1.1" xmlns="http://www.w3.org/2000/svg" xmlns:xlink="http://www.w3.org/1999/xlink">
    <title>twitter</title>
    <g id="Other-Resolutions" stroke="none" stroke-width="1" fill="none" fill-rule="evenodd">
        <g id="Home-xs-414" transform="translate(-39.000000, -7703.000000)" fill="#FFFFFF">
            <g id="twitter" transform="translate(39.403438, 7703.933333)">
                <path d="M27.1997917,2.62256944 C26.196875,3.06638889 25.1247917,3.36611111 23.9950694,3.50444444 C25.1478472,2.81277778 26.0354861,1.71763889 26.4504861,0.415 C25.3726389,1.05479167 24.1795139,1.52166667 22.9056944,1.76951389 C21.8854861,0.680138889 20.4329861,0 18.830625,0 C15.7469444,0 13.2511806,2.50152778 13.2511806,5.58520833 C13.2511806,6.02326389 13.2972917,6.44979167 13.3952778,6.85902778 C8.75534722,6.62847222 4.63993056,4.40361111 1.89055556,1.02020833 C1.41215278,1.84444444 1.13548611,2.80701389 1.13548611,3.82722222 C1.13548611,5.76388889 2.126875,7.47576389 3.62548611,8.47868056 C2.70326389,8.455625 1.83868056,8.20201389 1.089375,7.78125 L1.089375,7.85041667 C1.089375,10.5594444 3.01451389,12.813125 5.56791667,13.3261111 C5.10104167,13.4529167 4.60534722,13.5220833 4.098125,13.5220833 C3.74076389,13.5220833 3.38916667,13.4875 3.04909722,13.4183333 C3.75805556,15.6374306 5.82152778,17.2513194 8.26541667,17.2974306 C6.35756944,18.7960417 3.94826389,19.6894444 1.33145833,19.6894444 C0.881875,19.6894444 0.438055556,19.660625 -7.10542736e-15,19.60875 C2.46118056,21.2111111 5.395,22.1333333 8.54208333,22.1333333 C18.8190972,22.1333333 24.433125,13.6200694 24.433125,6.23652778 C24.433125,5.99444444 24.4273611,5.75236111 24.4158333,5.51604167 C25.5052083,4.72638889 26.4504861,3.74652778 27.1997917,2.62256944 Z" id="Path"></path>
            </g>
        </g>
    </g>
</svg>