<?xml version="1.0" encoding="UTF-8"?>
<svg width="23px" height="17px" viewBox="0 0 23 17" version="1.1" xmlns="http://www.w3.org/2000/svg" xmlns:xlink="http://www.w3.org/1999/xlink">
    <title>wind</title>
    <g id="Website" stroke="none" stroke-width="1" fill="none" fill-rule="evenodd">
        <g id="Approach-xxl" transform="translate(-296.000000, -2737.000000)" fill="#2E5A82">
            <g id="wind" transform="translate(296.000000, 2737.500000)">
                <path d="M15,0 C19.418278,-8.11624501e-16 23,3.581722 23,8 C23,12.418278 19.418278,16 15,16 C11.6429918,16 8.76892431,13.9322854 7.58190884,11.0009677 L8,11 C8.55228475,11 9,10.5522847 9,10 C9,9.44771525 8.55228475,9 8,9 L7.06201291,9.00095508 C7.02108425,8.67305444 7,8.33898947 7,8 C7,7.66135644 7.02104125,7.32762733 7.06188768,7.00004872 L8,7 C8.55228475,7 9,6.55228475 9,6 C9,5.44771525 8.55228475,5 8,5 L7.58150511,5.0000295 C8.76827252,2.06818353 11.6426112,6.16742319e-16 15,0 Z" id="Combined-Shape"></path>
                <rect id="Rectangle-Copy-2" x="8" y="0" width="8" height="2" rx="1"></rect>
                <rect id="Rectangle-Copy-3" x="4" y="3" width="8" height="2" rx="1"></rect>
                <rect id="Rectangle-Copy-4" x="4" y="11" width="8" height="2" rx="1"></rect>
                <rect id="Rectangle-Copy-5" x="0" y="7" width="8" height="2" rx="1"></rect>
                <rect id="Rectangle-Copy-8" x="8" y="14" width="8" height="2" rx="1"></rect>
            </g>
        </g>
    </g>
</svg>